<?xml version="1.0" encoding="UTF-8" standalone="no"?>
<svg width="20px" height="20px" viewBox="0 0 20 20" version="1.1" xmlns="http://www.w3.org/2000/svg" xmlns:xlink="http://www.w3.org/1999/xlink">
    <!-- Generator: Sketch 3.6.1 (26313) - http://www.bohemiancoding.com/sketch -->
    <title>Icon_Add</title>
    <desc>Created with Sketch.</desc>
    <defs></defs>
    <g id="Receiving" stroke="none" stroke-width="1" fill="none" fill-rule="evenodd">
        <g id="Sony-X-Z3-Tab-Comp-Vertical-(2x)-Copy-4" transform="translate(-80.000000, -270.000000)" fill="#0076AD">
            <g id="Icon_Add" transform="translate(80.000000, 270.000000)">
                <path d="M10,18 L10,18 C14.418278,18 18,14.418278 18,10 C18,5.581722 14.418278,2 10,2 C5.581722,2 2,5.581722 2,10 C2,14.418278 5.581722,18 10,18 L10,18 L10,18 Z M10,20 L10,20 C4.4771525,20 0,15.5228475 0,10 C0,4.4771525 4.4771525,0 10,0 C15.5228475,0 20,4.4771525 20,10 C20,15.5228475 15.5228475,20 10,20 L10,20 L10,20 Z" id="Oval-26"></path>
                <path d="M9,8.9 L9,5 L11.2,5 L11.2,8.9 L15.1,8.9 L15.1,11.1 L11.2,11.1 L11.2,15 L9,15 L9,11.1 L5.1,11.1 L5.1,8.9 L9,8.9 L9,8.9 Z" id="Combined-Shape"></path>
            </g>
        </g>
    </g>
</svg>