<?xml version="1.0" encoding="UTF-8" standalone="no"?>
<svg width="20px" height="15px" viewBox="0 0 20 15" version="1.1" xmlns="http://www.w3.org/2000/svg" xmlns:xlink="http://www.w3.org/1999/xlink" xmlns:sketch="http://www.bohemiancoding.com/sketch/ns">
    <!-- Generator: Sketch 3.5.2 (25235) - http://www.bohemiancoding.com/sketch -->
    <title>admin_card_ok_bg</title>
    <desc>Created with Sketch.</desc>
    <defs></defs>
    <g id="Page-1" stroke="none" stroke-width="1" fill="none" fill-rule="evenodd" sketch:type="MSPage">
        <path d="M19.7882338,1.83529412 L18.1882338,0.235294118 C18.031372,0.0784293647 17.8509824,0 17.6470588,0 C17.4431352,0 17.2627456,0.0784293647 17.1058839,0.235294118 L7.48235294,9.85882202 L2.89411765,5.24705732 C2.7372541,5.10588085 2.55686385,5.03529412 2.35294118,5.03529412 C2.1490185,5.03529412 1.96862825,5.10588085 1.81176471,5.24705732 L0.211764706,6.84705732 C0.0705875426,7.00392207 0,7.18431172 0,7.38823529 C0,7.59215887 0.0705875426,7.77254852 0.211764706,7.92941327 L6.94117798,14.6823529 C7.08235445,14.8392165 7.25882278,14.9176471 7.47058899,14.9176471 C7.6823552,14.9176471 7.85882353,14.8392165 8,14.6823529 L19.7882338,2.91764706 C19.9294133,2.76078231 20,2.57647134 20,2.36470513 C20,2.15293892 19.9294133,1.97647059 19.7882338,1.83529412 L19.7882338,1.83529412 Z" id="admin_card_ok_bg" fill="#FFFFFF" sketch:type="MSShapeGroup"></path>
    </g>
</svg>