<?xml version="1.0" encoding="UTF-8" standalone="no"?>
<svg
   xmlns:dc="http://purl.org/dc/elements/1.1/"
   xmlns:cc="http://creativecommons.org/ns#"
   xmlns:rdf="http://www.w3.org/1999/02/22-rdf-syntax-ns#"
   xmlns:svg="http://www.w3.org/2000/svg"
   xmlns="http://www.w3.org/2000/svg"
   xmlns:sodipodi="http://sodipodi.sourceforge.net/DTD/sodipodi-0.dtd"
   xmlns:inkscape="http://www.inkscape.org/namespaces/inkscape"
   width="49px"
   height="32px"
   viewBox="0 0 49 32"
   version="1.1"
   id="svg4181"
   inkscape:version="0.91 r13725"
   sodipodi:docname="Icon_boxing_blue.svg">
  <metadata
     id="metadata4195">
    <rdf:RDF>
      <cc:Work
         rdf:about="">
        <dc:format>image/svg+xml</dc:format>
        <dc:type
           rdf:resource="http://purl.org/dc/dcmitype/StillImage" />
        <dc:title>Icon_boxing</dc:title>
      </cc:Work>
    </rdf:RDF>
  </metadata>
  <sodipodi:namedview
     pagecolor="#ffffff"
     bordercolor="#666666"
     borderopacity="1"
     objecttolerance="10"
     gridtolerance="10"
     guidetolerance="10"
     inkscape:pageopacity="0"
     inkscape:pageshadow="2"
     inkscape:window-width="1535"
     inkscape:window-height="876"
     id="namedview4193"
     showgrid="false"
     inkscape:zoom="20.55102"
     inkscape:cx="24.5"
     inkscape:cy="16"
     inkscape:window-x="65"
     inkscape:window-y="24"
     inkscape:window-maximized="1"
     inkscape:current-layer="svg4181" />
  <!-- Generator: Sketch 3.6.1 (26313) - http://www.bohemiancoding.com/sketch -->
  <title
     id="title4183">Icon_boxing</title>
  <desc
     id="desc4185">Created with Sketch.</desc>
  <defs
     id="defs4187" />
  <g
     id="Receiving"
     stroke="none"
     stroke-width="1"
     fill="none"
     fill-rule="evenodd">
    <g
       id="Sony-X-Z3-Tab-Comp-Vertical-(2x)-Copy-3"
       transform="translate(-63,-381)"
       style="fill:#74a2b0">
      <g
         id="Station-/-nav">
        <path
           d="m 87.318,380.9994 -17.143,6.857 -7.175,7.223 0.417,0.465 6.758,-2.382 0,11.562 17.143,7.347 17.142,-7.347 0,-4.437 6.974,-3.013 -6.974,-9.418 -17.142,-6.857 z m -1.157,14.073 0,-11.584 1.073,-0.489 1.077,0.489 0,11.511 -1.09,0.577 -1.06,-0.504 z m 2.791,1.866 14.976,-6.473 4.402,5.971 -14.977,6.473 -4.401,-5.971 z m -16.777,6.466 0,-12.301 13.936,5.974 0,12.301 -13.936,-5.974 z m 16.135,-3.966 4.377,5.937 9.774,-4.223 0,2.252 -14.151,6.066 0,-10.032 z"
           id="Icon_boxing"
           inkscape:connector-curvature="0" />
      </g>
    </g>
  </g>
</svg>
