<?xml version="1.0" encoding="UTF-8" standalone="no"?>
<svg width="23px" height="20px" viewBox="0 0 23 20" version="1.1" xmlns="http://www.w3.org/2000/svg" xmlns:xlink="http://www.w3.org/1999/xlink">
    <!-- Generator: Sketch 3.6.1 (26313) - http://www.bohemiancoding.com/sketch -->
    <title>Icon_Hide</title>
    <desc>Created with Sketch.</desc>
    <defs></defs>
    <g id="Receiving" stroke="none" stroke-width="1" fill="none" fill-rule="evenodd">
        <g id="Sony-X-Z3-Tab-Comp-Vertical-(2x)-Copy-4" transform="translate(-165.000000, -270.000000)" fill="#0076AD">
            <g id="Icon_Hide" transform="translate(165.000000, 270.000000)">
                <path d="M2.3134,9.7563 C4.3274,6.6613 7.7574,4.7783 11.5004,4.7783 C12.5364,4.7783 13.5424,4.9383 14.5054,5.2173 L13.0584,6.6633 C12.5894,6.4243 12.0644,6.2783 11.5004,6.2783 C9.5674,6.2783 8.0004,7.8453 8.0004,9.7783 C8.0004,10.3423 8.1454,10.8673 8.3854,11.3373 L6.3064,13.4163 C4.7104,12.5593 3.3294,11.3173 2.3134,9.7563 L2.3134,9.7563 Z M19.7224,0.0003 L16.0924,3.6293 C14.6644,3.0853 13.1194,2.7783 11.5004,2.7783 C6.5004,2.7783 2.1614,5.6093 0.0004,9.7563 C1.1074,11.8813 2.7944,13.6513 4.8424,14.8803 L1.7224,18.0003 L3.2774,19.5553 L21.2774,1.5553 L19.7224,0.0003 Z" id="Fill-1"></path>
                <path d="M19.713,5.7129 L18.281,7.1449 C19.205,7.8749 20.028,8.7429 20.687,9.7559 C18.673,12.8519 15.243,14.7349 11.5,14.7349 C11.244,14.7349 10.993,14.7049 10.74,14.6869 C10.735,14.6919 10.732,14.6939 10.727,14.6989 L8.948,16.4779 C9.773,16.6429 10.626,16.7349 11.5,16.7349 C16.5,16.7349 20.839,13.9029 23,9.7559 C22.186,8.1949 21.063,6.8199 19.713,5.7129" id="Fill-3"></path>
            </g>
        </g>
    </g>
</svg>