<?xml version="1.0" encoding="UTF-8" standalone="no"?>
<svg width="18px" height="21px" viewBox="0 0 18 21" version="1.1" xmlns="http://www.w3.org/2000/svg" xmlns:xlink="http://www.w3.org/1999/xlink" xmlns:sketch="http://www.bohemiancoding.com/sketch/ns">
    <!-- Generator: Sketch 3.5.2 (25235) - http://www.bohemiancoding.com/sketch -->
    <title>manual_input_icon</title>
    <desc>Created with Sketch.</desc>
    <defs></defs>
    <g id="Page-1" stroke="none" stroke-width="1" fill="none" fill-rule="evenodd" sketch:type="MSPage">
        <g id="manual_input_icon" sketch:type="MSLayerGroup" fill="#0878AB">
            <path d="M7.951,0.4 C6.701,0.4 5.242,1.176 5.242,3.364 L5.268,10.03 C4.39,9.711 3.47,9.614 2.58,9.55 L1.439,9.469 L0.88,10.467 L0.631,10.914 L0,12.042 L0.867,13.001 C2.711,15.037 4.769,17.324 5.321,17.961 C5.443,18.293 5.659,19.007 5.829,19.656 L6.181,21 L7.57,21 L14.369,21 L15.725,21 L16.099,19.697 L17.508,14.787 C17.554,14.613 17.853,13.437 17.853,12.451 L17.853,11.199 C17.974,9.245 16.64,7.615 14.58,7.217 L14.528,7.207 L14.477,7.2 C14.197,7.163 12.269,6.909 10.749,6.783 L10.685,3.512 C10.686,1.373 9.312,0.4 7.951,0.4 M7.951,2.2 C8.673,2.2 8.886,2.826 8.886,3.547 L8.984,8.584 C8.997,8.534 9.164,8.513 9.431,8.513 C10.701,8.513 14.239,8.985 14.239,8.985 C15.496,9.227 16.136,10.143 16.053,11.135 L16.053,12.451 C16.053,13.236 15.778,14.291 15.778,14.291 L14.369,19.2 L7.57,19.2 C7.57,19.2 7.134,17.538 6.873,17.015 C6.803,16.875 2.202,11.793 2.202,11.793 L2.452,11.346 C3.568,11.426 4.705,11.547 5.586,12.23 C6.467,12.913 7.084,13.904 7.084,13.904 L7.042,3.364 C7.042,2.642 7.229,2.2 7.951,2.2" id="Fill-1" sketch:type="MSShapeGroup"></path>
        </g>
    </g>
</svg>