<?xml version="1.0" encoding="UTF-8" standalone="no"?>
<svg width="48px" height="32px" viewBox="0 0 48 32" version="1.1" xmlns="http://www.w3.org/2000/svg" xmlns:xlink="http://www.w3.org/1999/xlink">
    <!-- Generator: Sketch 3.6.1 (26313) - http://www.bohemiancoding.com/sketch -->
    <title>Icon_shipping</title>
    <desc>Created with Sketch.</desc>
    <defs></defs>
    <g id="Receiving" stroke="none" stroke-width="1" fill="none" fill-rule="evenodd">
        <g id="Sony-X-Z3-Tab-Comp-Vertical-(2x)-Copy-3" transform="translate(-65.000000, -490.000000)" fill="#FD6A0E">
            <g id="Station-/-nav">
                <path d="M103.7855,501.2039 L97.2855,501.2039 L97.2855,511.7819 L103.7855,511.7819 L103.7855,519.1849 L112.7855,506.4929 L103.7855,493.8009 L103.7855,501.2039 Z M82.1432,489.9998 L65.0002,496.8568 L65.0002,497.0708 L65.0002,498.3948 L65.0002,513.7248 L82.1432,521.0718 L99.1532,513.7818 L97.2862,513.7818 L95.2862,513.7818 L95.2862,513.0448 L83.2852,518.1878 L83.2852,506.3218 L95.2862,501.1798 L95.2862,499.2038 L97.2862,499.2038 L99.2852,499.2038 L99.2852,498.0288 L99.2852,497.0708 L99.2852,496.8568 L82.1432,489.9998 Z M67.6012,498.1858 L82.1432,492.3698 L87.2262,494.4028 L73.0002,500.4998 L67.6012,498.1858 Z M76.3572,501.9388 L90.6992,495.7918 L96.6842,498.1858 L82.1432,504.4188 L76.3572,501.9388 Z M67.1992,512.2738 L67.1992,500.4078 L80.7862,506.2308 L80.7862,518.0958 L67.1992,512.2738 Z" id="Icon_shipping"></path>
            </g>
        </g>
    </g>
</svg>