<?xml version="1.0" encoding="UTF-8" standalone="no"?>
<svg width="34px" height="32px" viewBox="0 0 34 32" version="1.1" xmlns="http://www.w3.org/2000/svg" xmlns:xlink="http://www.w3.org/1999/xlink">
    <!-- Generator: Sketch 3.6.1 (26313) - http://www.bohemiancoding.com/sketch -->
    <title>Icon_labelPrinter</title>
    <desc>Created with Sketch.</desc>
    <defs></defs>
    <g id="Receiving" stroke="none" stroke-width="1" fill="none" fill-rule="evenodd">
        <g id="Sony-X-Z3-Tab-Comp-Vertical-(2x)-Copy-4" transform="translate(-69.000000, -1162.000000)">
            <g id="Icon_labelPrinter" transform="translate(69.000000, 1162.000000)">
                <path d="M30.0039,3 L3.9959,3 C1.7829,3 -0.0001,4.794 -0.0001,7.009 L-0.0001,21.991 C-0.0001,24.205 1.7879,26 3.9959,26 L7.9999,26 L7.9999,24 L3.9959,24 C2.8939,24 1.9999,23.102 1.9999,21.991 L1.9999,7.009 C1.9999,5.896 2.8899,5 3.9959,5 L30.0039,5 C31.1059,5 31.9999,5.898 31.9999,7.009 L31.9999,21.991 C31.9999,23.104 31.1099,24 30.0039,24 L25.9999,24 L25.9999,26 L30.0039,26 C32.2169,26 33.9999,24.206 33.9999,21.991 L33.9999,7.009 C33.9999,4.795 32.2119,3 30.0039,3" id="Fill-1" fill="#FD6A0E"></path>
                <rect id="Rectangle-306" stroke="#FD6A0E" stroke-width="2" x="8" y="12" width="18" height="19"></rect>
                <rect id="Rectangle-307" fill="#FD6A0E" x="7" y="0" width="20" height="4"></rect>
                <rect id="Rectangle-307" fill="#FD6A0E" x="12" y="16" width="3" height="3"></rect>
                <rect id="Rectangle-307" fill="#FD6A0E" x="16" y="16" width="2" height="3"></rect>
                <rect id="Rectangle-307" fill="#FD6A0E" x="19" y="16" width="3" height="3"></rect>
                <rect id="Rectangle-307" fill="#FD6A0E" x="12" y="20" width="1" height="3"></rect>
                <rect id="Rectangle-307" fill="#FD6A0E" x="14" y="20" width="2" height="3"></rect>
                <rect id="Rectangle-307" fill="#FD6A0E" x="17" y="20" width="5" height="3"></rect>
                <rect id="Rectangle-307" fill="#FD6A0E" x="12" y="24" width="2" height="3"></rect>
                <rect id="Rectangle-307" fill="#FD6A0E" x="15" y="24" width="4" height="3"></rect>
                <rect id="Rectangle-307" fill="#FD6A0E" x="20" y="24" width="2" height="3"></rect>
            </g>
        </g>
    </g>
</svg>