<?xml version="1.0" encoding="UTF-8" standalone="no"?>
<svg width="50px" height="37px" viewBox="0 0 50 37" version="1.1" xmlns="http://www.w3.org/2000/svg" xmlns:xlink="http://www.w3.org/1999/xlink">
    <!-- Generator: Sketch 3.6.1 (26313) - http://www.bohemiancoding.com/sketch -->
    <title>icon_shipping2</title>
    <desc>Created with Sketch.</desc>
    <defs></defs>
    <g id="Receiving" stroke="none" stroke-width="1" fill="none" fill-rule="evenodd">
        <g id="Sony-X-Z3-Tab-Comp-Vertical-(2x)-Copy-4" transform="translate(-64.000000, -1323.000000)" fill="#FD6A0E">
            <g id="icon_shipping2" transform="translate(64.000000, 1323.000000)">
                <path d="M40.4001,12.342 L34.4001,12.342 L34.4001,23.318 L40.4001,23.318 L40.4001,30.523 L49.2001,17.83 L40.4001,5.138 L40.4001,12.342 Z" id="Fill-1"></path>
                <path d="M30.1508,27.21 L27.9398,28.224 L27.9398,13.128 L30.1508,12.115 L30.1508,27.21 Z M26.1308,29.052 L23.9198,30.066 L23.9198,15.06 C23.9198,15.031 23.9058,15.006 23.9038,14.978 L26.1308,13.957 L26.1308,29.052 Z M22.1108,30.895 L19.8998,31.908 L19.8998,16.813 L22.1108,15.8 L22.1108,30.895 Z M18.0908,32.738 L15.8798,33.751 L15.8798,18.655 L18.0908,17.642 L18.0908,32.738 Z M14.9628,17.085 L3.1368,12.017 L25.0368,1.979 L36.8648,7.047 L14.9628,17.085 Z M14.0708,33.789 L8.8438,31.549 L8.8438,26.543 L11.1748,27.563 C11.6328,27.763 12.1658,27.554 12.3658,27.097 C12.5658,26.64 12.3568,26.107 11.8988,25.906 L8.8438,24.57 L8.8438,16.432 L14.0708,18.671 L14.0708,33.789 Z M7.0348,30.774 L1.8088,28.534 L1.8088,13.417 L7.0348,15.657 L7.0348,30.774 Z M31.9598,26.381 L31.9598,10.042 L35.9798,10.042 L35.9798,9.443 L37.9998,8.517 L37.9998,5.567 L25.0128,0 L-0.0002,11.464 L-0.0002,29.727 L14.9868,36.15 L37.7458,25.719 L33.4048,25.719 L31.9598,26.381 Z" id="Fill-2"></path>
            </g>
        </g>
    </g>
</svg>