<?xml version="1.0" encoding="UTF-8" standalone="no"?>
<svg width="43px" height="31px" viewBox="0 0 43 31" version="1.1" xmlns="http://www.w3.org/2000/svg" xmlns:xlink="http://www.w3.org/1999/xlink" xmlns:sketch="http://www.bohemiancoding.com/sketch/ns">
    <!-- Generator: Sketch 3.5.2 (25235) - http://www.bohemiancoding.com/sketch -->
    <title>nav_receiving_icon</title>
    <desc>Created with Sketch.</desc>
    <defs></defs>
    <g id="Page-1" stroke="none" stroke-width="1" fill="none" fill-rule="evenodd" sketch:type="MSPage">
        <g id="nav_receiving_icon" sketch:type="MSLayerGroup" transform="translate(0.000000, 1.000000)">
            <rect id="Rectangle-100-Copy" fill="#FD6A0E" sketch:type="MSShapeGroup" x="0" y="10" width="9" height="10"></rect>
            <path d="M6.5,3 L15.5,15 L6.5,27 L6.5,3 L6.5,3 Z" id="Rectangle-100-Copy" fill="#FD6A0E" sketch:type="MSShapeGroup"></path>
            <g id="Group" transform="translate(18.000000, 0.000000)" sketch:type="MSShapeGroup">
                <rect id="Rectangle-99" fill="#FD6A0E" x="10" y="15" width="4" height="7"></rect>
                <g id="Rectangle-102-+-Rectangle-100-+-Rectangle-102" transform="translate(0.000000, 25.000000)" fill="#FD6A0E">
                    <rect id="Rectangle-102" x="2" y="1" width="3" height="4"></rect>
                    <rect id="Rectangle-100" x="0" y="0" width="24" height="2.5"></rect>
                    <rect id="Rectangle-102" x="19" y="1" width="3" height="4"></rect>
                </g>
                <path d="M5.89115466,14.8640537 L18.0719565,14.8640537 L22.9516905,4.81735523 C22.9516905,4.81735523 19.5637138,0 12.1750309,0 C4.78634799,0 1,4.77147334 1,4.77147334 L5.89115466,14.8640537 Z" id="Path-1" stroke="#FD6A0E" stroke-width="2"></path>
                <path d="M10.6516113,12.0000001 L14.5416124,12 L16.309082,3.79150391 L15.4663086,3.47192383 L10.6516113,12.0000001 Z" id="Path-2" fill="#FD6A0E"></path>
            </g>
        </g>
    </g>
</svg>