<?xml version="1.0" encoding="UTF-8" standalone="no"?>
<svg width="40px" height="36px" viewBox="0 0 40 36" version="1.1" xmlns="http://www.w3.org/2000/svg" xmlns:xlink="http://www.w3.org/1999/xlink">
    <!-- Generator: Sketch 3.6.1 (26313) - http://www.bohemiancoding.com/sketch -->
    <title>Icon_inventory</title>
    <desc>Created with Sketch.</desc>
    <defs></defs>
    <g id="Receiving" stroke="none" stroke-width="1" fill="none" fill-rule="evenodd">
        <g id="Sony-X-Z3-Tab-Comp-Vertical-(2x)-Copy-3" transform="translate(-67.000000, -434.000000)" fill="#FF661C">
            <g id="Station-/-nav">
                <path d="M86.6893,434.0002 L69.6343,440.8252 L69.6343,455.6772 L86.6893,462.9952 L103.7443,455.6772 L103.7443,440.8252 L86.6893,434.0002 Z M80.9853,438.0062 L86.6893,435.7232 L92.4883,438.0452 L86.7833,440.4232 L80.9853,438.0062 Z M72.1893,441.5272 L78.8643,438.8552 L84.7053,441.2902 L78.0793,444.0532 L72.1893,441.5272 Z M88.8613,441.2902 L94.6093,438.8932 L101.1903,441.5272 L95.3943,444.0132 L88.8613,441.2902 Z M80.1273,444.9322 L86.7833,442.1572 L93.3453,444.8932 L86.6893,447.7472 L80.1273,444.9322 Z M71.2333,448.0232 L71.2333,442.6682 L77.2643,445.2562 L77.2643,450.6112 L71.2333,448.0232 Z M96.1133,445.2572 L102.1453,442.6692 L102.1453,448.0232 L96.1133,450.6112 L96.1133,445.2572 Z M87.5903,448.9142 L94.3123,446.0292 L94.3123,451.3832 L87.5903,454.2692 L87.5903,448.9142 Z M79.0653,451.3832 L79.0653,446.0292 L85.7893,448.9142 L85.7893,454.2692 L79.0653,451.3832 Z M96.1133,452.3522 L102.1453,449.7642 L102.1453,454.6232 L96.1133,457.2112 L96.1133,452.3522 Z M71.2333,454.6232 L71.2333,449.7642 L77.2643,452.3522 L77.2643,457.2112 L71.2333,454.6232 Z M79.0653,457.9832 L79.0653,453.1242 L85.7893,456.0092 L85.7893,460.8692 L79.0653,457.9832 Z M87.5903,456.0092 L94.3123,453.1252 L94.3123,457.9842 L87.5903,460.8692 L87.5903,456.0092 Z M86.7298,465.3931 L66.9998,456.9271 L66.9998,460.9031 L69.5918,462.0151 L69.5918,459.9431 L73.9268,461.8061 L73.9268,463.8761 L79.3738,466.2131 L79.3738,464.2521 L83.7098,466.1141 L83.7098,468.0731 L86.7298,469.3691 L89.6778,468.1051 L89.6778,466.1141 L94.0128,464.2521 L94.0128,466.2441 L99.4598,463.9071 L99.4598,461.8061 L103.7948,459.9431 L103.7948,462.0471 L106.4608,460.9031 L106.4608,456.9271 L86.7298,465.3931 Z" id="Icon_inventory"></path>
            </g>
        </g>
    </g>
</svg>