<?xml version="1.0" encoding="UTF-8" standalone="no"?>
<svg width="38px" height="38px" viewBox="0 0 38 38" version="1.1" xmlns="http://www.w3.org/2000/svg" xmlns:xlink="http://www.w3.org/1999/xlink">
    <!-- Generator: Sketch 3.6.1 (26313) - http://www.bohemiancoding.com/sketch -->
    <title>Icon_scanner</title>
    <desc>Created with Sketch.</desc>
    <defs></defs>
    <g id="Receiving" stroke="none" stroke-width="1" fill="none" fill-rule="evenodd">
        <g id="Sony-X-Z3-Tab-Comp-Vertical-(2x)-Copy-4" transform="translate(-69.000000, -1216.000000)" fill="#FD6A0E">
            <g id="Icon_scanner" transform="translate(69.000000, 1216.000000)">
                <path d="M21.3675056,2.83944444 L31.3277278,7.42055556 C32.3336722,7.88394444 32.9838944,8.89727778 32.9838944,10.0045556 L32.9838944,12.4228333 C32.9838944,13.0276667 32.6250056,13.5744444 32.0697833,13.8151111 L31.5810611,14.0272778 L19.5815056,19.2364444 L19.5815056,15.8544444 C19.5815056,14.1455 18.5755611,12.5864444 17.0165056,11.8834444 L5.70306111,6.77666667 L14.9613389,2.76766667 C15.9525056,2.33805556 17.0038389,2.12061111 18.0836722,2.12061111 C19.2257833,2.12061111 20.3298944,2.36233333 21.3675056,2.83944444 L21.3675056,2.83944444 Z M15.4236722,20.1062222 L3.43256111,14.6922778 C2.62928333,14.3302222 2.11100556,13.5258889 2.11100556,12.6455556 L2.11100556,8.90361111 C2.11100556,8.72733333 2.25456111,8.32622222 2.53428333,8.12777778 C2.85517222,7.89977778 3.33439444,8.02327778 3.41778333,8.06022222 L16.1488389,13.8077222 C16.9521167,14.1697778 17.4703944,14.9741111 17.4703944,15.8544444 L17.4703944,19.2945 L17.4703944,19.5963889 C17.4703944,20.0523889 17.1748389,20.292 17.0460611,20.3743333 C17.0323389,20.3838333 17.0048944,20.3965 16.9848389,20.4070556 C16.8307278,20.4925556 16.5330611,20.6055 16.1646722,20.4408333 L15.4236722,20.1062222 Z M37.1871167,29.9651111 L32.3136167,16.0212222 L32.9142278,15.7605 C34.2442278,15.1831111 35.1045056,13.8721111 35.1045056,12.4228333 L35.1045056,10.0045556 C35.1045056,8.0655 33.9761167,6.30483333 32.2143944,5.49416667 L22.2531167,0.913055556 C20.9315611,0.305055556 19.5076167,0 18.0836722,0 C16.7346722,0 15.3846167,0.273388889 14.1190056,0.822277778 L2.13528333,6.01138889 C2.13528333,6.01138889 1.42172778,6.33227778 1.38900556,6.35338889 C0.519227778,6.91494444 -0.000105555556,7.86916667 -0.000105555556,8.90361111 L-0.000105555556,12.6455556 C-0.000105555556,14.3545 1.00583889,15.9135556 2.56489444,16.6165556 L15.29595,22.3640556 C15.6960056,22.5456111 16.12245,22.6353333 16.5467833,22.6353333 C16.7916722,22.6353333 17.0355056,22.5994444 17.2740611,22.5392778 L18.3338389,22.0896111 L30.3745611,16.8635556 L35.2037278,30.6881667 C35.8433944,32.4583333 34.9978944,34.4459444 33.2773389,35.2122778 C32.2481722,35.6714444 31.1071167,35.6809444 30.06845,35.2386667 C29.0308389,34.7963889 28.2476167,33.9688333 27.8623389,32.9016667 L26.4120056,28.2815 C26.24945,28.6636111 25.9866167,28.9897778 25.6372278,29.2315 C25.5696722,29.279 24.71045,29.7687778 24.71045,29.7687778 L25.87895,33.6257778 C26.4563389,35.2217778 27.6818389,36.5169444 29.24195,37.1808889 C30.0061722,37.5070556 30.8242278,37.6685556 31.6422833,37.6685556 C32.4941167,37.6685556 33.34595,37.4922778 34.1376167,37.1397222 C36.8630611,35.9268889 38.2036167,32.7760556 37.1871167,29.9651111 L37.1871167,29.9651111 Z" id="Fill-1"></path>
                <path d="M20.0142833,23.2165222 C19.8475056,23.9131889 19.5297833,25.2790778 19.3471722,26.3441333 C19.2342278,27.0091333 19.3292278,27.7839111 20.8977833,28.4879667 L21.4477278,28.7349667 C21.8266722,28.9028 22.25945,28.9028 22.6352278,28.7307444 L24.5373389,27.7036889 C24.6428944,27.6466889 24.7062278,27.5379667 24.7062278,27.4186889 L24.7062278,21.1856333 L20.0142833,23.2165222 Z" id="Fill-4"></path>
                <path d="M15.4908056,14.9039167 L4.01902778,9.72536111 C3.93036111,9.68525 3.84169444,9.68947222 3.75725,9.71058333 C3.58519444,9.75280556 3.44375,9.89847222 3.44375,10.0969167 L3.44375,12.5954167 C3.44375,13.0271389 3.69602778,13.41875 4.08975,13.5960833 L15.5625833,18.7756944 C15.6311944,18.8063056 15.7008611,18.8158056 15.7684167,18.8094722 C15.9679167,18.7894167 16.1378611,18.62475 16.1378611,18.4030833 L16.1378611,15.9056389 C16.1378611,15.4739167 15.8845278,15.08125 15.4908056,14.9039167" id="Fill-6"></path>
            </g>
        </g>
    </g>
</svg>