<?xml version="1.0" encoding="UTF-8" standalone="no"?>
<svg width="46px" height="37px" viewBox="0 0 46 37" version="1.1" xmlns="http://www.w3.org/2000/svg" xmlns:xlink="http://www.w3.org/1999/xlink">
    <!-- Generator: Sketch 3.6.1 (26313) - http://www.bohemiancoding.com/sketch -->
    <title>icon_shippingReceiving</title>
    <desc>Created with Sketch.</desc>
    <defs></defs>
    <g id="Receiving" stroke="none" stroke-width="1" fill="none" fill-rule="evenodd">
        <g id="Sony-X-Z3-Tab-Comp-Vertical-(2x)-Copy-4" transform="translate(-63.000000, -1268.000000)" fill="#FD6A0E">
            <g id="icon_shippingReceiving" transform="translate(63.000000, 1268.000000)">
                <path d="M6.0003,15.2166 L0.0003,15.2166 L0.0003,26.1936 L6.0003,26.1936 L6.0003,33.3976 L14.7993,20.7056 L6.0003,8.0126 L6.0003,15.2166 Z" id="Fill-1"></path>
                <path d="M44.1243,28.5337 L38.8983,30.7737 L38.8983,25.7017 L42.0623,24.3177 C42.5193,24.1167 42.7283,23.5837 42.5283,23.1267 C42.3283,22.6697 41.7953,22.4607 41.3373,22.6607 L38.8983,23.7277 L38.8983,15.6577 L44.1243,13.4167 L44.1243,28.5337 Z M37.0893,31.5487 L31.8633,33.7887 L31.8633,18.6717 L37.0893,16.4317 L37.0893,31.5487 Z M9.0693,7.0477 L20.8963,1.9787 L42.7963,12.0167 L30.9703,17.0857 L9.0693,7.0477 Z M30.0543,33.7507 L27.8433,32.7377 L27.8433,17.6427 L30.0543,18.6557 L30.0543,33.7507 Z M26.0343,31.9087 L23.8223,30.8957 L23.8223,15.7997 L26.0343,16.8127 L26.0343,31.9087 Z M22.0133,15.0607 L22.0133,30.0667 L19.8023,29.0527 L19.8023,13.9567 L22.0303,14.9777 C22.0283,15.0057 22.0133,15.0307 22.0133,15.0607 L22.0133,15.0607 Z M20.9203,-0.0003 L7.3873,5.8007 L11.7623,12.1117 L11.7623,10.2727 L13.9733,11.2857 L13.9733,15.3007 L15.7823,17.9107 L15.7823,12.1147 L17.9933,13.1277 L17.9933,28.2237 L15.7823,27.2097 L15.7823,23.4997 L12.7843,27.8257 L30.9463,36.1497 L45.9333,29.7267 L45.9333,11.4647 L20.9203,-0.0003 Z" id="Fill-2"></path>
            </g>
        </g>
    </g>
</svg>