<?xml version="1.0" encoding="UTF-8" standalone="no"?>
<svg width="33px" height="22px" viewBox="0 0 33 22" version="1.1" xmlns="http://www.w3.org/2000/svg" xmlns:xlink="http://www.w3.org/1999/xlink" xmlns:sketch="http://www.bohemiancoding.com/sketch/ns">
    <!-- Generator: Sketch 3.5.2 (25235) - http://www.bohemiancoding.com/sketch -->
    <title>nav_manage_lots_icon</title>
    <desc>Created with Sketch.</desc>
    <defs></defs>
    <g id="Page-1" stroke="none" stroke-width="1" fill="none" fill-rule="evenodd" sketch:type="MSPage">
        <g id="nav_manage_lots_icon" sketch:type="MSLayerGroup" fill="#FD6A0E">
            <rect id="Rectangle-39" sketch:type="MSShapeGroup" x="0" y="0" width="5" height="4"></rect>
            <rect id="Rectangle-39" sketch:type="MSShapeGroup" x="0" y="6" width="5" height="4"></rect>
            <rect id="Rectangle-39" sketch:type="MSShapeGroup" x="0" y="12" width="5" height="4"></rect>
            <rect id="Rectangle-39" sketch:type="MSShapeGroup" x="0" y="18" width="5" height="4"></rect>
            <rect id="Rectangle-39" sketch:type="MSShapeGroup" x="7" y="18" width="5" height="4"></rect>
            <rect id="Rectangle-39" sketch:type="MSShapeGroup" x="14" y="18" width="5" height="4"></rect>
            <rect id="Rectangle-39" sketch:type="MSShapeGroup" x="21" y="18" width="5" height="4"></rect>
            <rect id="Rectangle-39" sketch:type="MSShapeGroup" x="28" y="18" width="5" height="4"></rect>
            <rect id="Rectangle-39" sketch:type="MSShapeGroup" x="7" y="12" width="5" height="4"></rect>
            <rect id="Rectangle-39" sketch:type="MSShapeGroup" x="14" y="12" width="5" height="4"></rect>
            <rect id="Rectangle-39" sketch:type="MSShapeGroup" x="21" y="12" width="5" height="4"></rect>
            <rect id="Rectangle-39" sketch:type="MSShapeGroup" x="28" y="12" width="5" height="4"></rect>
            <rect id="Rectangle-39" sketch:type="MSShapeGroup" x="7" y="6" width="5" height="4"></rect>
            <rect id="Rectangle-39" sketch:type="MSShapeGroup" x="14" y="6" width="5" height="4"></rect>
            <rect id="Rectangle-39" sketch:type="MSShapeGroup" x="21" y="6" width="5" height="4"></rect>
            <rect id="Rectangle-39" sketch:type="MSShapeGroup" x="28" y="6" width="5" height="4"></rect>
            <rect id="Rectangle-39" sketch:type="MSShapeGroup" x="7" y="0" width="5" height="4"></rect>
            <rect id="Rectangle-39" sketch:type="MSShapeGroup" x="14" y="0" width="5" height="4"></rect>
            <rect id="Rectangle-39" sketch:type="MSShapeGroup" x="21" y="0" width="5" height="4"></rect>
            <rect id="Rectangle-39" sketch:type="MSShapeGroup" x="28" y="0" width="5" height="4"></rect>
        </g>
    </g>
</svg>