<?xml version="1.0" encoding="UTF-8" standalone="no"?>
<svg width="26px" height="26px" viewBox="0 0 26 26" version="1.1" xmlns="http://www.w3.org/2000/svg" xmlns:xlink="http://www.w3.org/1999/xlink" xmlns:sketch="http://www.bohemiancoding.com/sketch/ns">
    <!-- Generator: Sketch 3.5.2 (25235) - http://www.bohemiancoding.com/sketch -->
    <title>Manage Sources Icon</title>
    <desc>Created with Sketch.</desc>
    <defs></defs>
    <g id="Page-1" stroke="none" stroke-width="1" fill="none" fill-rule="evenodd" sketch:type="MSPage">
        <path d="M17.0595354,8.94046457 C15.9381129,7.81903704 14.5849453,7.25833332 12.9999975,7.25833332 C11.4150547,7.25833332 10.0618871,7.81903704 8.94046457,8.94046457 C7.81903704,10.0618871 7.25833332,11.4150547 7.25833332,13.0000025 C7.25833332,14.5849453 7.81903704,15.9381129 8.94046457,17.0595354 C10.0618871,18.180963 11.4150547,18.7416667 12.9999975,18.7416667 C14.5849453,18.7416667 15.9381129,18.180963 17.0595354,17.0595354 C18.180963,15.9381129 18.7416667,14.5849453 18.7416667,13.0000025 C18.7416667,11.4150547 18.180963,10.0618871 17.0595354,8.94046457 Z M26,11.1549466 L26,14.9127612 C26,15.0481768 25.9548602,15.1779504 25.8645844,15.3020819 C25.7743048,15.4262173 25.6614573,15.4995671 25.5260417,15.5221351 L22.3945308,15.9960934 C22.1801196,16.6054711 21.9600703,17.1189234 21.7343751,17.536458 C22.1293416,18.1006959 22.7330697,18.8793336 23.5455708,19.8723976 C23.6584184,20.0078132 23.7148422,20.1488707 23.7148422,20.2955741 C23.7148422,20.4422737 23.6640642,20.5720473 23.5625006,20.6848949 C23.2578098,21.1024332 22.6992215,21.7118033 21.8867167,22.5130207 C21.0742156,23.3142401 20.5438373,23.7148437 20.2955741,23.7148437 C20.1601547,23.7148437 20.0134552,23.664063 19.8554678,23.5625002 L17.519532,21.7343751 C17.0230019,21.993926 16.5095495,22.2083334 15.9791674,22.3776044 C15.7986083,23.9123342 15.6349827,24.9618026 15.4882793,25.5260417 C15.4092875,25.8420155 15.2061641,26 14.8789054,26 L11.1210946,26 C10.9631072,26 10.8248706,25.9520404 10.7063811,25.8561198 C10.5878915,25.7601992 10.5230047,25.6388896 10.5117169,25.4921874 L10.0377586,22.3776044 C9.48480468,22.1970494 8.97699815,21.988284 8.51432382,21.7513011 L6.12760241,23.5625002 C6.01475483,23.664063 5.87369725,23.7148437 5.70442588,23.7148437 C5.54643851,23.7148437 5.40538093,23.6527783 5.28124935,23.5286459 C3.85936679,22.2421812 2.92838752,21.2942726 2.4882812,20.6848949 C2.40928789,20.5720473 2.36979162,20.4422737 2.36979162,20.2955741 C2.36979162,20.1601547 2.41492989,20.0303812 2.50520834,19.9062496 C2.67448009,19.6692704 2.96223763,19.2940547 3.36848968,18.7805986 C3.77474135,18.2671425 4.07942754,17.8693587 4.28255091,17.5872398 C3.97786396,17.0230019 3.74652831,16.4644135 3.5885417,15.9114596 L0.490885461,15.4544273 C0.344183302,15.4318593 0.225694897,15.3613305 0.13541668,15.2428371 C0.0451384257,15.1243476 0,14.991753 0,14.8450534 L0,11.0872388 C0,10.9518232 0.0451384257,10.8220496 0.13541668,10.6979181 C0.225694897,10.5737827 0.332898696,10.5004329 0.457031186,10.4778649 L3.60546884,10.0039066 C3.76345545,9.48480847 3.98350596,8.96571415 4.26562491,8.44661603 C3.81423459,7.80338255 3.21050723,7.02474485 2.45442692,6.11067641 C2.34157934,5.97526083 2.28515631,5.83984525 2.28515631,5.70442588 C2.28515631,5.5915783 2.33593696,5.46180851 2.43749979,5.31510514 C2.73090426,4.90885081 3.2866712,4.30230549 4.10481654,3.49544264 C4.9229634,2.68857978 5.45616272,2.28515783 5.70442588,2.28515783 C5.85112925,2.28515783 5.99782883,2.34158162 6.14453221,2.4544292 L8.48046803,4.26562491 C8.97699815,4.00607396 9.49044668,3.79166659 10.0208326,3.62239522 C10.201388,2.08766508 10.3650173,1.03819623 10.5117169,0.473958323 C10.5907125,0.15798358 10.7938359,0 11.1210946,0 L14.8789054,0 C15.0368928,0 15.1751294,0.0479607907 15.2936189,0.143882372 C15.4121085,0.239800162 15.4769953,0.361110742 15.4882793,0.507814114 L15.9622376,3.62239522 C16.5151915,3.80295438 17.0230019,4.01171975 17.4856762,4.24869891 L19.8893236,2.43749941 C19.9908872,2.33593583 20.126299,2.28515783 20.2955741,2.28515783 C20.4422737,2.28515783 20.5833313,2.34158162 20.7187507,2.4544292 C22.1744852,3.79731617 23.1054645,4.75650923 23.5117188,5.33203114 C23.5907106,5.42231072 23.6302084,5.5464423 23.6302084,5.70442588 C23.6302084,5.83984525 23.5850686,5.96961883 23.4947928,6.09375041 C23.3255176,6.33072958 23.0377605,6.70594532 22.6315099,7.21940143 C22.2252594,7.73285755 21.9205725,8.13064129 21.7174491,8.41276024 C22.010852,8.97699815 22.2421854,9.52994447 22.4114568,10.0716144 L25.5091157,10.5455727 C25.6558153,10.5681445 25.7743048,10.6386733 25.8645844,10.7571629 C25.9548602,10.8756524 26,11.008247 26,11.1549466 L26,11.1549466 Z" id="Manage-Sources-Icon" fill="#FD6A0E" sketch:type="MSShapeGroup"></path>
    </g>
</svg>