<?xml version="1.0" encoding="UTF-8" standalone="no"?>
<svg width="48px" height="29px" viewBox="0 0 48 29" version="1.1" xmlns="http://www.w3.org/2000/svg" xmlns:xlink="http://www.w3.org/1999/xlink">
    <!-- Generator: Sketch 3.6.1 (26313) - http://www.bohemiancoding.com/sketch -->
    <title>Icon_trimming</title>
    <desc>Created with Sketch.</desc>
    <defs></defs>
    <g id="Receiving" stroke="none" stroke-width="1" fill="none" fill-rule="evenodd">
        <g id="Sony-X-Z3-Tab-Comp-Vertical-(2x)-Copy-3" transform="translate(-65.000000, -272.000000)" fill="#FD6A0E">
            <g id="Station-/-nav">
                <path d="M110.287673,296.734727 C110.108764,297.005273 108.989491,297.860545 107.149127,298.068909 C106.325491,298.161636 105.510582,298.102727 104.724036,297.894364 C99.4233091,296.483818 87.3033091,290.900545 82.3527636,288.573636 L85.6342182,283.119091 C90.9982182,286.082 106.209855,294.478727 108.763673,295.784545 C109.615673,296.219818 110.069491,296.516545 110.3084,296.700909 C110.301855,296.711818 110.294218,296.722727 110.287673,296.734727 M109.757491,293.841636 C106.709491,292.283818 84.8487636,280.191091 84.8487636,280.191091 L79.2425818,289.512909 C79.2425818,289.512909 97.1716727,298.142 104.163309,300.003091 C105.284764,300.300909 106.3844,300.351091 107.394582,300.236545 C109.710582,299.974727 111.562945,298.848909 112.155309,297.862727 C113.105491,296.280909 112.771673,295.382 109.757491,293.841636 Z M83.4009091,279.347927 C83.4009091,279.347927 73.4725455,273.647927 71.4161818,272.521018 C69.3598182,271.393018 66.7525455,272.164291 65.5590909,274.182473 C64.3645455,276.200655 65.2165455,278.897382 66.8714545,279.797382 C68.5274545,280.696291 70.6285455,279.725382 71.678,280.058109 C72.7274545,280.390836 72.9903636,282.088291 74.5274545,282.9632 C75.9969091,283.801018 79.8270909,285.2312 79.8270909,285.2312 L83.4009091,279.347927 Z M78.5376364,281.768655 C78.0205455,281.910473 77.486,281.606109 77.3441818,281.089018 C77.2023636,280.570836 77.5067273,280.037382 78.0238182,279.895564 C78.542,279.753745 79.0754545,280.058109 79.2172727,280.5752 C79.3590909,281.092291 79.0547273,281.626836 78.5376364,281.768655 Z M74.3398182,278.701018 C73.8227273,278.842836 73.2881818,278.538473 73.1463636,278.021382 C73.0045455,277.5032 73.3089091,276.969745 73.826,276.827927 C74.3441818,276.686109 74.8776364,276.990473 75.0194545,277.507564 C75.1612727,278.024655 74.8569091,278.5592 74.3398182,278.701018 Z M69.4056364,277.0352 C68.7685455,277.209745 68.1096364,276.835564 67.9350909,276.198473 C67.7616364,275.561382 68.1358182,274.903564 68.7729091,274.727927 C69.41,274.554473 70.0678182,274.928655 70.2423636,275.565745 C70.4169091,276.202836 70.0416364,276.860655 69.4056364,277.0352 Z" id="Icon_trimming"></path>
            </g>
        </g>
    </g>
</svg>