<?xml version="1.0" encoding="UTF-8" standalone="no"?>
<svg width="36px" height="27px" viewBox="0 0 36 27" version="1.1" xmlns="http://www.w3.org/2000/svg" xmlns:xlink="http://www.w3.org/1999/xlink">
    <!-- Generator: Sketch 3.6.1 (26313) - http://www.bohemiancoding.com/sketch -->
    <title>Icon_retouching</title>
    <desc>Created with Sketch.</desc>
    <defs></defs>
    <g id="Receiving" stroke="none" stroke-width="1" fill="none" fill-rule="evenodd">
        <g id="Sony-X-Z3-Tab-Comp-Vertical-(2x)-Copy-3" transform="translate(-69.000000, -328.000000)" fill="#FD6A0E">
            <g id="Station-/-nav">
                <path d="M100.316711,348.388239 C100.155026,348.427266 99.9853758,348.467886 99.8213014,348.50771 C97.9360384,346.631209 96.4514038,344.867807 95.9631629,342.216332 C96.7341534,342.236244 97.5083298,342.263324 98.2673732,342.263324 C98.5278214,342.263324 98.7850837,342.257749 99.043939,342.25536 C99.3195203,344.384345 100.279276,346.313414 101.911259,348.004336 C101.393549,348.12779 100.863891,348.255227 100.316711,348.388239 L100.316711,348.388239 Z M70.7514547,345.441271 C71.1895175,346.166066 71.6713865,346.855019 72.1540521,347.532025 C73.1560212,348.938605 74.1850705,350.388194 74.7649063,352.196199 C73.4690369,352.245581 72.140512,352.280626 70.7514547,352.289387 L70.7514547,345.441271 Z M75.2746521,329.828713 C74.541096,331.063254 73.6076241,331.937786 72.6932676,332.786832 C72.0186509,333.412863 71.3408482,334.055621 70.7514547,334.821036 L70.7514547,329.753844 C72.3491891,329.760216 73.8433815,329.788093 75.2746521,329.828713 L75.2746521,329.828713 Z M94.6035753,347.896015 C92.9230071,346.197925 91.5570477,344.81285 91.0831434,342.005266 C92.1735215,342.073763 93.2654926,342.131109 94.3534813,342.175712 C94.7987124,345.076484 96.2212217,347.066086 98.0140932,348.940994 C97.3761145,349.092325 96.7182239,349.245249 96.0364389,349.398969 C95.5497909,348.858161 95.0687183,348.365937 94.6035753,347.896015 L94.6035753,347.896015 Z M89.5618708,347.667426 C87.8247528,345.923936 86.41658,344.503816 85.9506405,341.620567 C87.1063298,341.716144 88.2731698,341.804553 89.4551428,341.88898 C89.9497555,345.451625 91.6629793,347.18954 93.4709839,349.01666 C93.7210779,349.269143 93.9759508,349.526405 94.2316202,349.793226 C93.4837275,349.951725 92.7135335,350.109427 91.9122768,350.263147 C91.1420828,349.265161 90.3408261,348.448771 89.5618708,347.667426 L89.5618708,347.667426 Z M83.9212151,346.918737 C82.2804708,345.185601 81.0626563,343.873006 80.89221,341.19923 C81.825682,341.274895 82.7695082,341.353747 83.7300604,341.435784 C83.922808,341.451714 84.1259099,341.467643 84.3202504,341.484369 C84.7981371,345.140999 86.5671143,346.918737 88.4340583,348.791256 C88.9979646,349.357552 89.573818,349.942167 90.130556,350.591296 C89.1723932,350.76015 88.1688312,350.920242 87.13341,351.073165 L87.2210226,351.019005 C86.1194938,349.241266 84.9518573,348.007522 83.9212151,346.918737 L83.9212151,346.918737 Z M78.613487,346.904401 C77.0954003,345.055776 75.7748402,343.424589 75.476161,340.840019 C76.6828248,340.893383 77.9555964,340.974623 79.2801389,341.073387 C79.4235049,344.479126 80.9798226,346.127835 82.7647293,348.013894 C83.6241289,348.922675 84.5814952,349.9573 85.4902763,351.302551 C84.3226399,351.457068 83.1072148,351.598044 81.8384256,351.722295 C80.9216797,349.728711 79.7014757,348.230536 78.613487,346.904401 L78.613487,346.904401 Z M73.8760371,340.787451 C74.1683444,343.963008 75.7246621,345.895263 77.3821323,347.915131 C78.3538353,349.099493 79.3518219,350.322087 80.1475033,351.878404 C78.9472112,351.977964 77.6935552,352.059205 76.4008717,352.125313 C75.7780261,349.891192 74.6008319,348.220978 73.4515144,346.608111 C72.1285648,344.752318 70.973672,343.117149 70.7857032,340.836036 C71.7199717,340.777097 72.7561893,340.763557 73.8760371,340.787451 L73.8760371,340.787451 Z M78.0384301,332.958871 C76.3467112,334.440319 74.7465873,335.846899 74.1556008,339.037589 C72.9266355,339.007323 71.7876723,339.018474 70.7514547,339.080599 L70.7514547,338.928472 C71.0644705,336.494436 72.3197195,335.306091 73.7772738,333.953672 C74.9034934,332.908693 76.1507777,331.737074 77.0476117,329.889245 C78.3665789,329.941016 79.6281997,330.004735 80.8165446,330.083586 C79.9284719,331.299808 78.971902,332.142481 78.0384301,332.958871 L78.0384301,332.958871 Z M83.8805947,332.670546 C81.8551517,334.365451 80.0933428,335.846103 79.5915618,339.339454 C78.2710016,339.239098 76.9926547,339.155468 75.7772296,339.098122 C76.299719,336.624262 77.5414279,335.513175 79.0889843,334.15757 C80.2279475,333.16038 81.503905,332.033364 82.6468506,330.215005 C83.9020996,330.316157 85.0800903,330.432443 86.2055134,330.55988 C85.4026638,331.382641 84.6085754,332.060444 83.8805947,332.670546 L83.8805947,332.670546 Z M89.6024912,332.553464 C87.4543906,334.258723 85.4265581,335.879555 84.5775128,339.748048 C84.3457377,339.728932 84.1075909,339.70902 83.8774088,339.689905 C82.9670347,339.612646 82.0702007,339.536981 81.1821279,339.465298 C81.6170048,336.645766 83.0148233,335.472555 84.9032722,333.891546 C85.9068342,333.051262 87.0274785,332.112215 88.1608664,330.79723 C89.2185889,330.936614 90.2197615,331.087148 91.1834996,331.244054 C90.6562313,331.71079 90.1241842,332.138499 89.6024912,332.553464 L89.6024912,332.553464 Z M94.5693268,332.954092 C92.4347663,334.642625 90.4188809,336.246731 89.5937299,340.146286 C88.443616,340.064249 87.3022633,339.97584 86.1768402,339.882652 C86.9247328,336.71745 88.5559194,335.418394 90.5933096,333.800748 C91.4288148,333.136485 92.2890108,332.441957 93.1412421,331.581761 C94.0094029,331.74026 94.8472975,331.904334 95.6652802,332.070798 C95.2973075,332.377442 94.9301312,332.668953 94.5693268,332.954092 L94.5693268,332.954092 Z M91.2002257,340.255404 C91.9290029,337.080643 93.5402774,335.799907 95.5577557,334.202969 C96.2252041,333.675701 96.9125644,333.125335 97.6118719,332.480188 C98.3525963,332.64028 99.0845594,332.800372 99.8117436,332.96126 C97.483639,334.801124 95.2789885,336.879134 94.4801212,340.427443 C93.3897431,340.383637 92.2945862,340.324697 91.2002257,340.255404 L91.2002257,340.255404 Z M103.248545,334.618731 C101.046284,336.291334 99.6755459,338.267395 99.168986,340.501516 C98.1686099,340.513463 97.1507113,340.501516 96.1232549,340.476825 C96.9730967,337.185778 99.2104029,335.428748 101.797363,333.435961 L101.842762,333.400916 C102.310294,333.502069 102.777827,333.607204 103.248545,333.70517 L103.248545,334.618731 Z M103.248545,340.303989 C102.45605,340.37169 101.646828,340.421071 100.820085,340.452134 C101.215934,339.086174 102.031527,337.828536 103.248545,336.693555 L103.248545,340.303989 Z M100.64247,342.220315 C101.527357,342.190048 102.397907,342.143853 103.248545,342.073763 L103.248545,347.08759 C101.791787,345.646762 100.915662,344.013983 100.64247,342.220315 L100.64247,342.220315 Z M104.298303,332.132923 C102.939512,331.857342 101.611783,331.563442 100.263347,331.266355 C93.3252284,329.735525 85.4616031,328 69.8753291,328 L69,328 L69,354.044824 L69.8753291,354.044824 C84.4142348,354.044824 93.8437355,351.759729 100.729286,350.091108 C102.003651,349.782075 103.192792,349.494546 104.314233,349.245249 L105,349.092325 L105,332.275493 L104.298303,332.132923 Z" id="Icon_retouching"></path>
            </g>
        </g>
    </g>
</svg>