<?xml version="1.0" encoding="UTF-8" standalone="no"?>
<svg width="49px" height="32px" viewBox="0 0 49 32" version="1.1" xmlns="http://www.w3.org/2000/svg" xmlns:xlink="http://www.w3.org/1999/xlink">
    <!-- Generator: Sketch 3.6.1 (26313) - http://www.bohemiancoding.com/sketch -->
    <title>Icon_boxing</title>
    <desc>Created with Sketch.</desc>
    <defs></defs>
    <g id="Receiving" stroke="none" stroke-width="1" fill="none" fill-rule="evenodd">
        <g id="Sony-X-Z3-Tab-Comp-Vertical-(2x)-Copy-3" transform="translate(-63.000000, -381.000000)" fill="#FD6A0E">
            <g id="Station-/-nav">
                <path d="M87.318,380.9994 L70.175,387.8564 L63,395.0794 L63.417,395.5444 L70.175,393.1624 L70.175,404.7244 L87.318,412.0714 L104.46,404.7244 L104.46,400.2874 L111.434,397.2744 L104.46,387.8564 L87.318,380.9994 Z M86.161,395.0724 L86.161,383.4884 L87.234,382.9994 L88.311,383.4884 L88.311,394.9994 L87.221,395.5764 L86.161,395.0724 Z M88.952,396.9384 L103.928,390.4654 L108.33,396.4364 L93.353,402.9094 L88.952,396.9384 Z M72.175,403.4044 L72.175,391.1034 L86.111,397.0774 L86.111,409.3784 L72.175,403.4044 Z M88.31,399.4384 L92.687,405.3754 L102.461,401.1524 L102.461,403.4044 L88.31,409.4704 L88.31,399.4384 Z" id="Icon_boxing"></path>
            </g>
        </g>
    </g>
</svg>