<?xml version="1.0" encoding="UTF-8" standalone="no"?>
<svg width="26px" height="26px" viewBox="0 0 26 26" version="1.1" xmlns="http://www.w3.org/2000/svg" xmlns:xlink="http://www.w3.org/1999/xlink">
    <!-- Generator: Sketch 3.6.1 (26313) - http://www.bohemiancoding.com/sketch -->
    <title>Icon_manageSources</title>
    <desc>Created with Sketch.</desc>
    <defs></defs>
    <g id="Receiving" stroke="none" stroke-width="1" fill="none" fill-rule="evenodd">
        <g id="Sony-X-Z3-Tab-Comp-Vertical-(2x)-Copy-3" transform="translate(-74.000000, -112.000000)" fill="#FD6A0E">
            <g id="Station-/-nav">
                <path d="M91.0595354,120.940465 C89.9381129,119.819037 88.5849453,119.258333 86.9999975,119.258333 C85.4150547,119.258333 84.0618871,119.819037 82.9404646,120.940465 C81.819037,122.061887 81.2583333,123.415055 81.2583333,125.000003 C81.2583333,126.584945 81.819037,127.938113 82.9404646,129.059535 C84.0618871,130.180963 85.4150547,130.741667 86.9999975,130.741667 C88.5849453,130.741667 89.9381129,130.180963 91.0595354,129.059535 C92.180963,127.938113 92.7416667,126.584945 92.7416667,125.000003 C92.7416667,123.415055 92.180963,122.061887 91.0595354,120.940465 Z M100,123.154947 L100,126.912761 C100,127.048177 99.9548602,127.17795 99.8645844,127.302082 C99.7743048,127.426217 99.6614573,127.499567 99.5260417,127.522135 L96.3945308,127.996093 C96.1801196,128.605471 95.9600703,129.118923 95.7343751,129.536458 C96.1293416,130.100696 96.7330697,130.879334 97.5455708,131.872398 C97.6584184,132.007813 97.7148422,132.148871 97.7148422,132.295574 C97.7148422,132.442274 97.6640642,132.572047 97.5625006,132.684895 C97.2578098,133.102433 96.6992215,133.711803 95.8867167,134.513021 C95.0742156,135.31424 94.5438373,135.714844 94.2955741,135.714844 C94.1601547,135.714844 94.0134552,135.664063 93.8554678,135.5625 L91.519532,133.734375 C91.0230019,133.993926 90.5095495,134.208333 89.9791674,134.377604 C89.7986083,135.912334 89.6349827,136.961803 89.4882793,137.526042 C89.4092875,137.842015 89.2061641,138 88.8789054,138 L85.1210946,138 C84.9631072,138 84.8248706,137.95204 84.7063811,137.85612 C84.5878915,137.760199 84.5230047,137.63889 84.5117169,137.492187 L84.0377586,134.377604 C83.4848047,134.197049 82.9769981,133.988284 82.5143238,133.751301 L80.1276024,135.5625 C80.0147548,135.664063 79.8736973,135.714844 79.7044259,135.714844 C79.5464385,135.714844 79.4053809,135.652778 79.2812493,135.528646 C77.8593668,134.242181 76.9283875,133.294273 76.4882812,132.684895 C76.4092879,132.572047 76.3697916,132.442274 76.3697916,132.295574 C76.3697916,132.160155 76.4149299,132.030381 76.5052083,131.90625 C76.6744801,131.66927 76.9622376,131.294055 77.3684897,130.780599 C77.7747413,130.267142 78.0794275,129.869359 78.2825509,129.58724 C77.977864,129.023002 77.7465283,128.464414 77.5885417,127.91146 L74.4908855,127.454427 C74.3441833,127.431859 74.2256949,127.361331 74.1354167,127.242837 C74.0451384,127.124348 74,126.991753 74,126.845053 L74,123.087239 C74,122.951823 74.0451384,122.82205 74.1354167,122.697918 C74.2256949,122.573783 74.3328987,122.500433 74.4570312,122.477865 L77.6054688,122.003907 C77.7634555,121.484808 77.983506,120.965714 78.2656249,120.446616 C77.8142346,119.803383 77.2105072,119.024745 76.4544269,118.110676 C76.3415793,117.975261 76.2851563,117.839845 76.2851563,117.704426 C76.2851563,117.591578 76.335937,117.461809 76.4374998,117.315105 C76.7309043,116.908851 77.2866712,116.302305 78.1048165,115.495443 C78.9229634,114.68858 79.4561627,114.285158 79.7044259,114.285158 C79.8511293,114.285158 79.9978288,114.341582 80.1445322,114.454429 L82.480468,116.265625 C82.9769981,116.006074 83.4904467,115.791667 84.0208326,115.622395 C84.201388,114.087665 84.3650173,113.038196 84.5117169,112.473958 C84.5907125,112.157984 84.7938359,112 85.1210946,112 L88.8789054,112 C89.0368928,112 89.1751294,112.047961 89.2936189,112.143882 C89.4121085,112.2398 89.4769953,112.361111 89.4882793,112.507814 L89.9622376,115.622395 C90.5151915,115.802954 91.0230019,116.01172 91.4856762,116.248699 L93.8893236,114.437499 C93.9908872,114.335936 94.126299,114.285158 94.2955741,114.285158 C94.4422737,114.285158 94.5833313,114.341582 94.7187507,114.454429 C96.1744852,115.797316 97.1054645,116.756509 97.5117188,117.332031 C97.5907106,117.422311 97.6302084,117.546442 97.6302084,117.704426 C97.6302084,117.839845 97.5850686,117.969619 97.4947928,118.09375 C97.3255176,118.33073 97.0377605,118.705945 96.6315099,119.219401 C96.2252594,119.732858 95.9205725,120.130641 95.7174491,120.41276 C96.010852,120.976998 96.2421854,121.529944 96.4114568,122.071614 L99.5091157,122.545573 C99.6558153,122.568144 99.7743048,122.638673 99.8645844,122.757163 C99.9548602,122.875652 100,123.008247 100,123.154947 L100,123.154947 Z" id="Icon_manageSources"></path>
            </g>
        </g>
    </g>
</svg>