<?xml version="1.0" encoding="UTF-8" standalone="no"?>
<svg width="40px" height="37px" viewBox="0 0 40 37" version="1.1" xmlns="http://www.w3.org/2000/svg" xmlns:xlink="http://www.w3.org/1999/xlink">
    <!-- Generator: Sketch 3.6.1 (26313) - http://www.bohemiancoding.com/sketch -->
    <title>Fill 1</title>
    <desc>Created with Sketch.</desc>
    <defs></defs>
    <g id="Receiving" stroke="none" stroke-width="1" fill="none" fill-rule="evenodd">
        <g id="Sony-X-Z3-Tab-Comp-Vertical-(2x)-Copy-4" transform="translate(-67.000000, -1049.000000)" fill="#FD6A0E">
            <path d="M105.190955,1077.53327 L99.9648241,1079.77347 L99.9648241,1074.70111 L103.128643,1073.31719 C103.58593,1073.11618 103.794975,1072.58352 103.594975,1072.12623 C103.394975,1071.66895 102.862312,1071.4599 102.40402,1071.6599 L99.9648241,1072.72724 L99.9648241,1064.65689 L105.190955,1062.41669 L105.190955,1077.53327 Z M92.9296482,1067.67096 L98.1557789,1065.43176 L98.1557789,1080.54834 L92.9296482,1082.78854 L92.9296482,1067.67096 Z M91.120603,1082.75035 L88.9095477,1081.73729 L88.9095477,1066.64181 L91.120603,1067.65488 L91.120603,1082.75035 Z M84.8894472,1064.7996 L87.1005025,1065.81267 L87.1005025,1080.90814 L84.8894472,1079.89508 L84.8894472,1064.7996 Z M80.8693467,1062.95638 L83.0964824,1063.97749 C83.0944724,1064.00563 83.080402,1064.03076 83.080402,1064.0599 L83.080402,1079.06593 L80.8693467,1078.05186 L80.8693467,1062.95638 Z M76.8492462,1061.11417 L79.0603015,1062.12724 L79.0603015,1077.22372 L76.8492462,1076.20965 L76.8492462,1061.11417 Z M72.8291457,1059.27196 L75.040201,1060.28503 L75.040201,1075.3805 L72.8291457,1074.36744 L72.8291457,1059.27196 Z M68.8090452,1057.42875 L71.0201005,1058.44282 L71.0201005,1073.53829 L68.8090452,1072.52523 L68.8090452,1057.42875 Z M81.9628141,1050.97849 L103.863317,1061.01669 L92.0371859,1066.08503 L70.1356784,1056.04684 L81.9628141,1050.97849 Z M106.107538,1060.05488 L81.9869347,1048.9996 L67.9165829,1055.03076 L67,1055.42372 L67,1056.60061 L67,1073.68503 L91.120603,1084.7403 L92.0130653,1085.14935 L92.9296482,1084.75739 L107,1078.72623 L107,1061.64081 L107,1060.46392 L106.107538,1060.05488 Z" id="Fill-1"></path>
        </g>
    </g>
</svg>