<?xml version="1.0" encoding="UTF-8" standalone="no"?>
<svg width="20px" height="20px" viewBox="0 0 20 20" version="1.1" xmlns="http://www.w3.org/2000/svg" xmlns:xlink="http://www.w3.org/1999/xlink">
    <!-- Generator: Sketch 3.6.1 (26313) - http://www.bohemiancoding.com/sketch -->
    <title>Icon_Print</title>
    <desc>Created with Sketch.</desc>
    <defs></defs>
    <g id="Receiving" stroke="none" stroke-width="1" fill="none" fill-rule="evenodd">
        <g id="Sony-X-Z3-Tab-Comp-Vertical-(2x)-Copy-4" transform="translate(-227.000000, -270.000000)" fill="#0076AD">
            <g id="Icon_Print" transform="translate(227.000000, 270.000000)">
                <path d="M18.2,13.9942 C18.2,14.1152 18.099,14.2002 18.009,14.2002 L16,14.2002 L16,7.0002 L4,7.0002 L4,14.2002 L1.991,14.2002 C1.886,14.2002 1.8,14.1072 1.8,13.9942 L1.8,4.0062 C1.8,3.8842 1.901,3.8002 1.991,3.8002 L18.009,3.8002 C18.114,3.8002 18.2,3.8922 18.2,4.0062 L18.2,13.9942 Z M5.8,18.2002 L14.2,18.2002 L14.2,8.8002 L5.8,8.8002 L5.8,18.2002 Z M18.009,2.0002 L16,2.0002 L16,0.0002 L4,0.0002 L4,2.0002 L1.991,2.0002 C0.898,2.0002 0,2.8982 0,4.0062 L0,13.9942 C0,15.1032 0.891,16.0002 1.991,16.0002 L4,16.0002 L4,20.0002 L16,20.0002 L16,16.0002 L18.009,16.0002 C19.102,16.0002 20,15.1022 20,13.9942 L20,4.0062 C20,2.8972 19.109,2.0002 18.009,2.0002 L18.009,2.0002 Z M8,12.0001 L12,12.0001 L12,11.0001 L8,11.0001 L8,12.0001 Z M8,16.0001 L12,16.0001 L12,15.0001 L8,15.0001 L8,16.0001 Z M8,14.0001 L12,14.0001 L12,13.0001 L8,13.0001 L8,14.0001 Z" id="Fill-1"></path>
            </g>
        </g>
    </g>
</svg>