<?xml version="1.0" encoding="UTF-8" standalone="no"?>
<svg width="37px" height="26px" viewBox="0 0 37 26" version="1.1" xmlns="http://www.w3.org/2000/svg" xmlns:xlink="http://www.w3.org/1999/xlink" xmlns:sketch="http://www.bohemiancoding.com/sketch/ns">
    <!-- Generator: Sketch 3.5.2 (25235) - http://www.bohemiancoding.com/sketch -->
    <title>Slice 1</title>
    <desc>Created with Sketch.</desc>
    <defs></defs>
    <g id="Page-1" stroke="none" stroke-width="1" fill="none" fill-rule="evenodd" sketch:type="MSPage">
        <g id="receivong_blue_icon" sketch:type="MSLayerGroup" fill="#005874">
            <path d="M5.4516129,9.22580645 L0,9.22580645 L0,17.6129032 L5.4516129,17.6129032 L5.4516129,23.483871 L13,13.4193548 L5.4516129,3.35483871 L5.4516129,9.22580645 L5.4516129,9.22580645 Z" id="Rectangle-100-Copy" sketch:type="MSShapeGroup"></path>
            <path d="M33.5483871,23.9032258 L33.5483871,26 L31.0322581,26 L31.0322581,23.9032258 L19.2903226,23.9032258 L19.2903226,26 L16.7741935,26 L16.7741935,23.9032258 L15.0967742,23.9032258 L15.0967742,21.8064516 L35.2258065,21.8064516 L35.2258065,23.9032258 L33.5483871,23.9032258 Z" id="Path" sketch:type="MSShapeGroup"></path>
            <rect id="Rectangle-99" sketch:type="MSShapeGroup" x="23.483871" y="13.4193548" width="3.35483871" height="5.87096774"></rect>
            <path d="M20.0377426,14.144045 L30.253899,14.144045 L30.7789392,14.144045 L31.0083279,13.6717654 L35.101008,5.24550218 L35.3169563,4.80089447 L35.0326162,4.39659208 C34.6231031,3.81430642 33.8279138,2.98504512 32.6229019,2.16540243 C30.6325868,0.811600634 28.1945947,0 25.3080904,0 C22.4287142,0 19.936425,0.799757445 17.8469024,2.13253589 C16.5848618,2.93751421 15.7295429,3.75084586 15.278496,4.31924533 L14.9508889,4.7320886 L15.180736,5.20636308 L19.2829947,13.6711079 L19.5121937,14.144045 L20.0377426,14.144045 Z M20.0377426,12.4666257 L20.7924905,12.9395628 L16.6902318,4.47481801 L16.5924718,5.36193576 C16.6682985,5.26638058 16.8400919,5.07637437 17.1064578,4.82308434 C17.5620283,4.38987761 18.110046,3.95428332 18.748952,3.54676434 C20.5807585,2.37836724 22.7651268,1.67741935 25.3080904,1.67741935 C27.843926,1.67741935 29.9572972,2.38095464 31.6794875,3.55237937 C32.2787699,3.96000808 32.7854081,4.39548321 33.2003995,4.82825606 C33.4422023,5.08041955 33.5952158,5.26866494 33.660542,5.36155217 L33.5921502,4.51264207 L29.4994701,12.9389053 L30.253899,12.4666257 L20.0377426,12.4666257 Z" id="Rectangle-102" sketch:type="MSShapeGroup"></path>
            <path d="M24.0303837,10.9032259 L27.2929653,10.9032258 L28.7753591,4.0186807 L28.0685169,3.75064579 L24.0303837,10.9032259 Z" id="Path-2" sketch:type="MSShapeGroup"></path>
        </g>
    </g>
</svg>