<?xml version="1.0" encoding="UTF-8" standalone="no"?>
<svg width="15px" height="15px" viewBox="0 0 15 15" version="1.1" xmlns="http://www.w3.org/2000/svg" xmlns:xlink="http://www.w3.org/1999/xlink" xmlns:sketch="http://www.bohemiancoding.com/sketch/ns">
    <!-- Generator: Sketch 3.5.2 (25235) - http://www.bohemiancoding.com/sketch -->
    <title>refresh_icon</title>
    <desc>Created with Sketch.</desc>
    <defs></defs>
    <g id="Page-1" stroke="none" stroke-width="1" fill="none" fill-rule="evenodd" sketch:type="MSPage">
        <g id="refresh_icon" sketch:type="MSLayerGroup" fill="#0076AD">
            <path d="M14.4844,7.5885 L14.4844,0.4995 L12.0814,2.9025 C10.8144,1.3135 9.1464,0.5255 7.0024,0.5255 C2.8794,0.5255 0.0004,3.3935 0.0004,7.4995 C0.0004,11.6355 3.3644,14.9995 7.5004,14.9995 C9.6944,14.9995 11.7724,14.0425 13.2004,12.3745 L11.3004,10.7485 C10.3834,11.8205 9.0214,12.4995 7.5004,12.4995 C4.7384,12.4995 2.5004,10.2615 2.5004,7.4995 C2.5004,4.7385 4.2404,3.0255 7.0014,3.0255 C8.4694,3.0255 9.4684,3.4955 10.3044,4.6795 L7.5004,7.4845 L14.4844,7.5885 Z" id="Fill-1" sketch:type="MSShapeGroup"></path>
        </g>
    </g>
</svg>