<svg id="svg4283" xmlns:sketch="http://www.bohemiancoding.com/sketch/ns" xmlns:rdf="http://www.w3.org/1999/02/22-rdf-syntax-ns#" xmlns="http://www.w3.org/2000/svg" height="20px" width="20px" version="1.1" xmlns:cc="http://creativecommons.org/ns#" viewBox="0 0 20 20" xmlns:dc="http://purl.org/dc/elements/1.1/">
<metadata id="metadata4298">
<rdf:RDF>
<cc:Work rdf:about="">
<dc:format>image/svg+xml</dc:format>
<dc:type rdf:resource="http://purl.org/dc/dcmitype/StillImage"/>
<dc:title>remove_icon</dc:title>
</cc:Work>
</rdf:RDF>
</metadata>
<!-- Generator: Sketch 3.5.2 (25235) - http://www.bohemiancoding.com/sketch -->
<title id="title4285">remove_icon</title>
<desc id="desc4287">Created with Sketch.</desc>
<g id="Page-1" fill-rule="evenodd" sketch:type="MSPage" fill="none">
<g id="remove_icon" fill="#dc0000" sketch:type="MSLayerGroup">
<path id="Shape" sketch:type="MSShapeGroup" d="m10 18.2c4.5287349 0 8.2-3.6712651 8.2-8.2 0-4.52873495-3.6712651-8.2-8.2-8.2-4.52873495 0-8.2 3.67126505-8.2 8.2 0 4.5287349 3.67126505 8.2 8.2 8.2zm0 1.8c-5.5228475 0-10-4.4771525-10-10s4.4771525-10 10-10 10 4.4771525 10 10-4.4771525 10-10 10z"/>
<path id="path4294" sketch:type="MSShapeGroup" d="m8.7627417 10.0355339l-2.8991378-2.8991378-0.63639611-0.6363961 1.27279221-1.27279221 0.6363961 0.63639611 2.8991378 2.8991378 2.8991378-2.8991378 0.6363961-0.63639611 1.2727922 1.27279221-0.6363961 0.6363961-2.8991378 2.8991378 2.8991378 2.8991378 0.6363961 0.6363961-1.2727922 1.2727922-0.6363961-0.6363961-2.8991378-2.8991378-2.8991378 2.8991378-0.6363961 0.6363961-1.27279221-1.2727922 0.63639611-0.6363961 2.8991378-2.8991378z"/>
</g>
</g>
</svg>
