<?xml version="1.0" encoding="UTF-8" standalone="no"?>
<svg
   xmlns:dc="http://purl.org/dc/elements/1.1/"
   xmlns:cc="http://creativecommons.org/ns#"
   xmlns:rdf="http://www.w3.org/1999/02/22-rdf-syntax-ns#"
   xmlns:svg="http://www.w3.org/2000/svg"
   xmlns="http://www.w3.org/2000/svg"
   xmlns:sodipodi="http://sodipodi.sourceforge.net/DTD/sodipodi-0.dtd"
   xmlns:inkscape="http://www.inkscape.org/namespaces/inkscape"
   width="36px"
   height="27px"
   viewBox="0 0 36 27"
   version="1.1"
   id="svg4181"
   inkscape:version="0.91 r13725"
   sodipodi:docname="Icon_retouching_blue.svg">
  <metadata
     id="metadata4195">
    <rdf:RDF>
      <cc:Work
         rdf:about="">
        <dc:format>image/svg+xml</dc:format>
        <dc:type
           rdf:resource="http://purl.org/dc/dcmitype/StillImage" />
        <dc:title>Icon_retouching</dc:title>
      </cc:Work>
    </rdf:RDF>
  </metadata>
  <sodipodi:namedview
     pagecolor="#ffffff"
     bordercolor="#666666"
     borderopacity="1"
     objecttolerance="10"
     gridtolerance="10"
     guidetolerance="10"
     inkscape:pageopacity="0"
     inkscape:pageshadow="2"
     inkscape:window-width="1535"
     inkscape:window-height="876"
     id="namedview4193"
     showgrid="false"
     inkscape:zoom="27.074074"
     inkscape:cx="18"
     inkscape:cy="13.5"
     inkscape:window-x="65"
     inkscape:window-y="24"
     inkscape:window-maximized="1"
     inkscape:current-layer="svg4181" />
  <!-- Generator: Sketch 3.6.1 (26313) - http://www.bohemiancoding.com/sketch -->
  <title
     id="title4183">Icon_retouching</title>
  <desc
     id="desc4185">Created with Sketch.</desc>
  <defs
     id="defs4187" />
  <g
     id="Receiving"
     stroke="none"
     stroke-width="1"
     fill="none"
     fill-rule="evenodd">
    <g
       id="Sony-X-Z3-Tab-Comp-Vertical-(2x)-Copy-3"
       transform="translate(-69,-328)"
       style="fill:#74a2b0">
      <g
         id="Station-/-nav">
        <path
           d="m 100.31671,348.38824 c -0.16168,0.039 -0.331334,0.0797 -0.495409,0.11947 -1.885263,-1.8765 -3.369897,-3.6399 -3.858138,-6.29138 0.77099,0.0199 1.545167,0.047 2.30421,0.047 0.260448,0 0.517711,-0.006 0.776566,-0.008 0.275581,2.12898 1.235341,4.05805 2.867321,5.74898 -0.51771,0.12345 -1.04737,0.25089 -1.59455,0.3839 l 0,0 z m -29.565255,-2.94697 c 0.438062,0.7248 0.919931,1.41375 1.402597,2.09075 1.001969,1.40658 2.031018,2.85617 2.610854,4.66418 -1.295869,0.0494 -2.624394,0.0844 -4.013451,0.0932 l 0,-6.84812 z m 4.523197,-15.61256 c -0.733556,1.23454 -1.667028,2.10908 -2.581384,2.95812 -0.674617,0.62603 -1.35242,1.26879 -1.941813,2.03421 l 0,-5.0672 c 1.597734,0.006 3.091927,0.0342 4.523197,0.0749 l 0,0 z m 19.328923,18.0673 c -1.680568,-1.69809 -3.046527,-3.08316 -3.520432,-5.89074 1.090379,0.0685 2.18235,0.12584 3.270338,0.17044 0.445231,2.90077 1.867741,4.89038 3.660612,6.76528 -0.637979,0.15134 -1.295869,0.30426 -1.977654,0.45798 -0.486648,-0.54081 -0.967721,-1.03303 -1.432864,-1.50296 l 0,0 z m -5.041704,-0.22858 c -1.737118,-1.74349 -3.145291,-3.16361 -3.61123,-6.04686 1.155689,0.0956 2.322529,0.18398 3.504502,0.26841 0.494612,3.56264 2.207836,5.30056 4.015841,7.12768 0.250094,0.25248 0.504967,0.50974 0.760636,0.77657 -0.747893,0.15849 -1.518087,0.3162 -2.319343,0.46992 -0.770194,-0.99799 -1.571451,-1.81438 -2.350406,-2.59572 l 0,0 z m -5.640656,-0.74869 c -1.640744,-1.73314 -2.858559,-3.04573 -3.029005,-5.71951 0.933472,0.0757 1.877298,0.15452 2.83785,0.23655 0.192748,0.0159 0.39585,0.0319 0.59019,0.0486 0.477887,3.65663 2.246864,5.43437 4.113808,7.30689 0.563907,0.56629 1.13976,1.15091 1.696498,1.80004 -0.958163,0.16885 -1.961725,0.32894 -2.997146,0.48187 l 0.08761,-0.0542 c -1.101529,-1.77773 -2.269166,-3.01148 -3.299808,-4.10026 l 0,0 z m -5.307728,-0.0143 c -1.518087,-1.84862 -2.838647,-3.47981 -3.137326,-6.06438 1.206664,0.0534 2.479435,0.1346 3.803978,0.23337 0.143366,3.40574 1.699684,5.05444 3.48459,6.9405 0.8594,0.90879 1.816766,1.94341 2.725547,3.28866 -1.167636,0.15452 -2.383061,0.29549 -3.65185,0.41974 -0.916746,-1.99358 -2.13695,-3.49175 -3.224939,-4.81789 l 0,0 z m -4.73745,-6.11695 c 0.292307,3.17556 1.848625,5.10781 3.506095,7.12768 0.971703,1.18436 1.96969,2.40696 2.765371,3.96327 -1.200292,0.0996 -2.453948,0.18081 -3.746631,0.24691 -0.622846,-2.23412 -1.80004,-3.90433 -2.949358,-5.5172 -1.322949,-1.85579 -2.477842,-3.49096 -2.665811,-5.77207 0.934269,-0.0589 1.970486,-0.0725 3.090334,-0.0486 l 0,0 z m 4.162393,-7.82858 c -1.691719,1.48145 -3.291843,2.88803 -3.882829,6.07872 -1.228965,-0.0303 -2.367929,-0.0191 -3.404146,0.043 l 0,-0.15213 c 0.313015,-2.43403 1.568265,-3.62238 3.025819,-4.9748 1.126219,-1.04498 2.373504,-2.2166 3.270338,-4.06442 1.318967,0.0518 2.580588,0.11548 3.768933,0.19434 -0.888073,1.21622 -1.844643,2.05889 -2.778115,2.87528 l 0,0 z m 5.842165,-0.28832 c -2.025443,1.6949 -3.787252,3.17555 -4.289033,6.6689 -1.32056,-0.10035 -2.598907,-0.18398 -3.814332,-0.24133 0.522489,-2.47386 1.764198,-3.58495 3.311754,-4.94055 1.138963,-0.99719 2.414921,-2.12421 3.557867,-3.94256 1.255249,0.10115 2.433239,0.21743 3.558662,0.34487 -0.802849,0.82276 -1.596938,1.50056 -2.324918,2.11067 l 0,0 z m 5.721896,-0.11709 c -2.1481,1.70526 -4.175933,3.32609 -5.024978,7.19459 -0.231775,-0.0191 -0.469922,-0.039 -0.700104,-0.0581 -0.910374,-0.0773 -1.807208,-0.15292 -2.695281,-0.2246 0.434877,-2.81953 1.832695,-3.99275 3.721144,-5.57375 1.003562,-0.84029 2.124206,-1.77934 3.257594,-3.09432 1.057723,0.13938 2.058896,0.28992 3.022634,0.44682 -0.527269,0.46674 -1.059316,0.89445 -1.581009,1.30941 l 0,0 z m 4.966836,0.40063 c -2.134561,1.68853 -4.150446,3.29264 -4.975597,7.1922 -1.150114,-0.082 -2.291467,-0.17045 -3.41689,-0.26364 0.747893,-3.1652 2.379079,-4.46426 4.41647,-6.0819 0.835505,-0.66427 1.695701,-1.35879 2.547932,-2.21899 0.868161,0.1585 1.706055,0.32257 2.524038,0.48904 -0.367972,0.30664 -0.735149,0.59815 -1.095953,0.88329 l 0,0 z m -3.369101,7.30131 c 0.728777,-3.17476 2.340051,-4.45549 4.35753,-6.05243 0.667448,-0.52727 1.354808,-1.07764 2.054116,-1.72278 0.740724,0.16009 1.472687,0.32018 2.199872,0.48107 -2.328105,1.83986 -4.532756,3.91787 -5.331623,7.46618 -1.090378,-0.0438 -2.185535,-0.10274 -3.279895,-0.17204 l 0,0 z m 12.048314,-5.63667 c -2.20226,1.6726 -3.572994,3.64867 -4.079554,5.88279 -1.000376,0.0119 -2.018275,0 -3.045731,-0.0247 0.849842,-3.29105 3.087148,-5.04808 5.674105,-7.04087 l 0.0454,-0.035 c 0.46753,0.10115 0.93507,0.20628 1.40578,0.30425 l 0,0.91356 z m 0,5.68526 c -0.79249,0.0677 -1.60171,0.11708 -2.42845,0.14814 0.39584,-1.36596 1.21144,-2.62359 2.42845,-3.75858 l 0,3.61044 z m -2.60607,1.91633 c 0.88489,-0.0303 1.75544,-0.0765 2.60607,-0.14656 l 0,5.01383 c -1.45675,-1.44083 -2.33288,-3.07361 -2.60607,-4.86727 l 0,0 z m 3.65583,-10.0874 c -1.35879,-0.27558 -2.68652,-0.56948 -4.03495,-0.86657 C 93.325228,329.73552 85.461603,328 69.875329,328 L 69,328 l 0,26.04482 0.875329,0 c 14.538906,0 23.968406,-2.28509 30.853961,-3.95371 1.27436,-0.30903 2.4635,-0.59656 3.58494,-0.84586 L 105,349.09233 l 0,-16.81684 -0.7017,-0.14257 z"
           id="Icon_retouching"
           inkscape:connector-curvature="0" />
      </g>
    </g>
  </g>
</svg>
