<?xml version="1.0" encoding="UTF-8" standalone="no"?>
<svg width="22px" height="26px" viewBox="0 0 22 26" version="1.1" xmlns="http://www.w3.org/2000/svg" xmlns:xlink="http://www.w3.org/1999/xlink">
    <!-- Generator: Sketch 3.7.2 (28276) - http://www.bohemiancoding.com/sketch -->
    <title>Group 14</title>
    <desc>Created with Sketch.</desc>
    <defs></defs>
    <g id="Admin-Manage-Lots" stroke="none" stroke-width="1" fill="none" fill-rule="evenodd">
        <g id="Desktop-HD" transform="translate(-240.000000, -81.000000)" fill="#0076AD">
            <g id="Headers" transform="translate(45.000000, 79.000000)">
                <g id="Group-18" transform="translate(195.000000, 1.000000)">
                    <g id="Icon-Receiving" transform="translate(0.000000, 1.000000)">
                        <g id="Group-14">
                            <path d="M19.5483871,23.9032258 L19.5483871,26 L17.0322581,26 L17.0322581,23.9032258 L5.29032258,23.9032258 L5.29032258,26 L2.77419355,26 L2.77419355,23.9032258 L1.09677419,23.9032258 L1.09677419,21.8064516 L21.2258065,21.8064516 L21.2258065,23.9032258 L19.5483871,23.9032258 Z" id="Path"></path>
                            <rect id="Rectangle-99" x="9.48387097" y="13.4193548" width="3.35483871" height="5.87096774"></rect>
                            <path d="M6.03774262,14.144045 L16.253899,14.144045 L16.7789392,14.144045 L17.0083279,13.6717654 L21.101008,5.24550218 L21.3169563,4.80089447 L21.0326162,4.39659208 C20.6231031,3.81430642 19.8279138,2.98504512 18.6229019,2.16540243 C16.6325868,0.811600634 14.1945947,0 11.3080904,0 C8.42871417,0 5.93642502,0.799757445 3.84690237,2.13253589 C2.58486182,2.93751421 1.72954286,3.75084586 1.27849598,4.31924533 L0.950888932,4.7320886 L1.18073598,5.20636308 L5.28299473,13.6711079 L5.51219367,14.144045 L6.03774262,14.144045 Z M6.03774262,12.4666257 L6.79249051,12.9395628 L2.69023176,4.47481801 L2.59247176,5.36193576 C2.66829848,5.26638058 2.84009194,5.07637437 3.10645777,4.82308434 C3.5620283,4.38987761 4.11004603,3.95428332 4.74895203,3.54676434 C6.58075853,2.37836724 8.76512681,1.67741935 11.3080904,1.67741935 C13.843926,1.67741935 15.9572972,2.38095464 17.6794875,3.55237937 C18.2787699,3.96000808 18.7854081,4.39548321 19.2003995,4.82825606 C19.4422023,5.08041955 19.5952158,5.26866494 19.660542,5.36155217 L19.5921502,4.51264207 L15.4994701,12.9389053 L16.253899,12.4666257 L6.03774262,12.4666257 Z" id="Rectangle-102"></path>
                            <polygon id="Path-2" points="10.0303837 10.9032259 13.2929653 10.9032258 14.7753591 4.0186807 14.0685169 3.75064579"></polygon>
                        </g>
                    </g>
                </g>
            </g>
        </g>
    </g>
</svg>
