<?xml version="1.0" encoding="UTF-8" standalone="no"?>
<svg width="46px" height="36px" viewBox="0 0 46 36" version="1.1" xmlns="http://www.w3.org/2000/svg" xmlns:xlink="http://www.w3.org/1999/xlink" xmlns:sketch="http://www.bohemiancoding.com/sketch/ns">
    <!-- Generator: Sketch 3.5.2 (25235) - http://www.bohemiancoding.com/sketch -->
    <title>shipping_blue_icon</title>
    <desc>Created with Sketch.</desc>
    <defs></defs>
    <g id="Page-1" stroke="none" stroke-width="1" fill="none" fill-rule="evenodd" sketch:type="MSPage">
        <g id="shipping_blue_icon" sketch:type="MSLayerGroup" transform="translate(0.000000, 3.000000)">
            <g id="Group-9" transform="translate(15.928571, 14.000000) scale(-1, 1) translate(-15.928571, -14.000000) translate(0.428571, 0.000000)" sketch:type="MSShapeGroup">
                <g id="Group-8" stroke="#74A2B0" stroke-width="2" fill="#EAEBEB">
                    <path d="M30.787172,6.1574344 L30.787172,18.91212 L15.393586,17.152853 L1.13686838e-13,18.91212 L1.13686838e-13,6.1574344 L15.393586,5.31264606e-14 C15.3935858,2.17782191e-06 30.787172,6.1574344 30.787172,6.1574344 Z" id="Rectangle-198"></path>
                    <path d="M15.393586,27.9008746 L1.13686838e-13,21.3036235 L1.13686838e-13,6.34985423 L15.393586,12.9471054 L30.787172,6.34985423 L30.787172,21.3036235 L15.393586,27.9008746 Z" id="Rectangle-198"></path>
                </g>
                <path d="M15.4897959,14.4314869 L15.4897959,25.9766764" id="Path-36" stroke="#74A2B0" stroke-width="2.5"></path>
                <path d="M7.40623719,5.07098584 L20.8756249,10.8435806 L24.0524781,9.62099125 L10.5830904,3.8483965 L7.40623719,5.07098584 Z" id="Path-37" fill="#74A2B0"></path>
            </g>
            <path d="M35.4693878,10.0675039 L29.6326531,10.0675039 L29.6326531,19.5651491 L35.4693878,19.5651491 L35.4693878,26.2135008 L43.5510204,14.8163265 L35.4693878,3.41915228 L35.4693878,10.0675039 Z" id="Rectangle-100-Copy" stroke="#EAEBEB" stroke-width="2" fill="#74A2B0" sketch:type="MSShapeGroup"></path>
        </g>
    </g>
</svg>