<!-- Created with Inkscape (http://www.inkscape.org/) -->
<svg id="svg4516" xmlns:rdf="http://www.w3.org/1999/02/22-rdf-syntax-ns#" xmlns="http://www.w3.org/2000/svg" height="8.5645895mm" width="49.759453mm" version="1.1" xmlns:cc="http://creativecommons.org/ns#" xmlns:dc="http://purl.org/dc/elements/1.1/" viewBox="0 0 176.31302 30.346971">
<metadata id="metadata4521">
<rdf:RDF>
<cc:Work rdf:about="">
<dc:format>image/svg+xml</dc:format>
<dc:type rdf:resource="http://purl.org/dc/dcmitype/StillImage"/>
<dc:title/>
</cc:Work>
</rdf:RDF>
</metadata>
<g id="layer1" transform="translate(-174.70063,-417.18872)">
<path id="path4473" d="m339.49211 417.18872v6.02841c6.93602 1.92641 7.04928 16.18193 0 19.07496v5.08364s-6.29834 0.35991 0 0c16.4973-3.05224 14.18332-29.34292 0-30.18701zm-3.55406 0v6.02841c-7.50878 1.87066-6.17344 16.38719-0.17995 19.25492v4.90368s5.80936-0.47004 0 0c-14.12437-1.09415-17.55255-26.42728 0.17995-30.18701zm-31.40171 11.42698v7.1981h14.0363v-7.1981zm-7.91791-11.42698h7.01815l-8.99762 16.2857-3.4191-6.65824zm-20.69454 0h7.19811l9.71743 18.26515v11.92186h-6.29834l-0.17995-11.7419zm-8.54773 23.84368v6.34333h10.70717v-6.34333zm-9.08761-23.84368v30.18701h6.20836v-30.18701zm-17.45539 24.1136v6.07341h10.70718v-6.07341zm-8.81767-24.1136v30.18701h6.11838v-30.18701zm-21.95421 0h5.57853l10.6172 30.18701h-6.29834zm-1.25967 4.58876-8.99762 25.59825h6.8382l1.79952-4.81374 7.37805 0.17995-1.79953-5.88116h-4.33413l1.99476-5.72577zm-25.55325 4.1389h6.47829v21.45935h-6.47829zm-8.54773-8.72766v5.93841h23.8437v-5.93841z" fill-rule="evenodd" fill="#fefdfa"/>
</g>
</svg>
