<!-- Created with Inkscape (http://www.inkscape.org/) -->
<svg id="svg5488" xmlns:rdf="http://www.w3.org/1999/02/22-rdf-syntax-ns#" xmlns="http://www.w3.org/2000/svg" height="14.271029mm" width="27.754873mm" version="1.1" xmlns:cc="http://creativecommons.org/ns#" xmlns:dc="http://purl.org/dc/elements/1.1/" viewBox="0 0 98.344039 50.56664">
<metadata id="metadata5493">
<rdf:RDF>
<cc:Work rdf:about="">
<dc:format>image/svg+xml</dc:format>
<dc:type rdf:resource="http://purl.org/dc/dcmitype/StillImage"/>
<dc:title/>
</cc:Work>
</rdf:RDF>
</metadata>
<g id="layer1" transform="translate(-263.97083,-246.07888)">
<g id="g5435" fill-rule="evenodd" transform="translate(175.97406,-55.251577)">
<path id="path5427" d="m87.996771 301.33046h98.344039l-15.92579 25.28332 15.92579 25.28332h-98.344039z" fill="#f26920"/>
<path id="path5403" style="color-rendering:auto;color:#000000;isolation:auto;mix-blend-mode:normal;shape-rendering:auto;solid-color:#000000;image-rendering:auto" d="m153.58946 335.07153v2.65431l3.1042 0.09v4.8587h2.96921v-12.76537h-2.96921v5.25236zm-4.31886-5.16236h2.83424v12.76537h-2.83424zm-16.80307 9.07634c1.38656 1.43789 2.5705 1.33445 3.55406 1.45087v2.23816c-1.00308-0.0565-3.33863-0.63977-5.2861-2.11444zm3.55406-9.07634v2.03571c-1.67858-0.26584-2.44259 2.46816 0.10286 2.77224 3.86317 0.4615 6.22023 0.80983 6.32082 4.02644-0.10337 3.24985-5.23148 3.93098-5.23148 3.93098l-0.09-2.23816s2.74292-0.40196 2.74427-1.72079c0.002-1.9543-2.41583-1.52853-4.40884-1.97948s-3.06327-1.81116-3.23913-3.28414 0.5149-3.47916 3.8015-3.5428zm5.28611 1.6758-1.28217 1.32715c-0.84225-0.80237-1.73267-0.94283-2.81175-1.03473l0.00002-1.96822c1.6729-0.0246 2.9095 0.29784 4.0939 1.6758zm-21.09944-1.6758h2.92422v12.76537h-2.92422zm-12.28175 5.38732v2.47434h3.68901v-2.47434zm0-5.38732v2.73302h5.26358v-2.73302zm-4.77646 0h2.96922v12.76537h-2.96922zm50.78535-9.36134v2.1911c-2.31132-0.30719-4.00821-1.81643-4.00821-1.81643l0.86982-1.86822c1.02836 0.93094 2.35907 1.46896 3.13839 1.49355zm0-10.52869v1.99937s-2.3785 1.50741 0.74274 2.92529c3.12124 1.41789 5.03435 1.77011 5.09393 4.12215 0.0768 3.03352-2.19489 3.29935-4.6015 3.67298l0.09-2.1911c1.50084-0.13676 3.21274-1.88784-0.26018-3.2894-2.83024-1.1422-4.09336-1.7526-4.34459-3.68947-0.25123-1.93686 1.06324-3.63752 3.27962-3.54982s-0.00002 0-0.00002 0zm6.12456 1.48461-1.73593 1.18958c-0.7653-0.50702-1.76595-0.76482-3.15346-0.67482v-1.99937c2.76871-0.14812 3.98195 0.64889 4.88939 1.48461zm-21.13955-1.48461h3.14934v13.03471h-3.14934zm-14.66505 4.77468 3.76921-0.0636v-4.71108h2.58215l-0.0636 13.03471h-2.51855v-5.73824l-3.76917 0.0636zm-4.04004-4.77468h2.83121l-0.0636 13.03471h-2.76761zm-14.91956 3.80942 2.67216 0.0636-0.12725 9.16169h-2.60853zm-3.75375-3.80942 0.0636 2.98232 10.75225-0.0636v-2.91872z" fill="#fff6e9"/>
</g>
</g>
</svg>
