<?xml version="1.0" encoding="UTF-8" standalone="no"?>
<svg width="79px" height="40px" viewBox="0 0 79 40" version="1.1" xmlns="http://www.w3.org/2000/svg" xmlns:xlink="http://www.w3.org/1999/xlink" xmlns:sketch="http://www.bohemiancoding.com/sketch/ns">
    <!-- Generator: Sketch 3.5.2 (25235) - http://www.bohemiancoding.com/sketch -->
    <title>ThisFish Logo</title>
    <desc>Created with Sketch.</desc>
    <defs>
        <path id="path-1" d="M0,0 L78.8571429,0 L78.8571429,40 L0,40 L0,0 Z"></path>
    </defs>
    <g id="Page-1" stroke="none" stroke-width="1" fill="none" fill-rule="evenodd" sketch:type="MSPage">
        <g id="ThisFish-Logo" sketch:type="MSLayerGroup">
            <path d="M0,-4.49438202e-05 L0,39.9999551 L78.8571429,39.9999551 L66.4608,19.9819775 L78.8571429,-4.49438202e-05 L0,-4.49438202e-05 Z" id="Fill-1" fill="#F26A21" sketch:type="MSShapeGroup"></path>
            <path d="M11.0354939,6.79550562 L19.5385469,6.79550562 L19.5385469,8.73707865 L11.0354939,8.73707865 L11.0354939,6.79550562 Z M14.2438531,9.84719101 L16.3346939,9.84719101 L16.3346939,17.2269663 L14.2438531,17.2269663 L14.2438531,9.84719101 Z" id="Fill-2" fill="#FEFEFE" sketch:type="MSShapeGroup"></path>
            <path d="M25.9282286,6.79550562 L28.0190694,6.79550562 L28.0190694,17.2269663 L25.9282286,17.2269663 L25.9282286,6.79550562 Z M32.1421714,17.2269663 L32.1421714,12.8988764 L29.1501061,12.8988764 L29.1501061,10.9797753 L32.1421714,10.9797753 L32.1421714,6.79550562 L34.2330122,6.79550562 L34.2330122,17.2269663 L32.1421714,17.2269663 Z" id="Fill-3" fill="#FEFEFE" sketch:type="MSShapeGroup"></path>
            <path d="M40.9065796,6.79550562 L42.9974204,6.79550562 L42.9974204,17.2269663 L40.9065796,17.2269663 L40.9065796,6.79550562 Z" id="Fill-4" fill="#FEFEFE" sketch:type="MSShapeGroup"></path>
            <g id="Group-13">
                <path d="M49.2338939,15.4876404 L50.6983837,14.0494382 C51.3968327,14.7146067 52.1178122,15.2 53.0911347,15.3258427 L53.0911347,17.352809 C51.5230041,17.2269663 50.3559184,16.5438202 49.2338939,15.4876404 L49.2338939,15.4876404 Z M54.2266776,17.3348315 L54.2266776,15.3617978 C55.0377796,15.2898876 55.7587592,14.9842697 55.7587592,14.0494382 C55.7587592,13.4382022 55.0197551,13.1505618 54.5330939,13.0966292 C54.5330939,13.0966292 52.9289143,12.9707865 52.6765714,12.8988764 C51.0048,12.7011236 49.6664816,11.6808989 49.6664816,9.9011236 C49.6664816,7.96404494 51.3067102,6.86741573 53.0911347,6.72359551 L53.0911347,8.71460674 C52.3566367,8.78651685 51.7798531,9.12808989 51.7798531,9.93707865 C51.7798531,10.6022472 52.6270041,10.8179775 53.1452082,10.8719101 L54.8755592,11.0876404 C56.6419592,11.3033708 57.9577469,12.1662921 57.9577469,14.0853933 C57.9577469,16.1662921 56.0832,17.1550562 54.2266776,17.3348315 L54.2266776,17.3348315 Z M56.3715918,9.63146067 C55.7227102,9.18202247 55.0017306,8.85842697 54.2266776,8.73707865 L54.2266776,6.72359551 C55.5064163,6.83146067 56.6780082,7.28089888 57.6693551,8.10786517 L56.3715918,9.63146067 Z" id="Fill-5" fill="#FEFEFE" sketch:type="MSShapeGroup"></path>
                <mask id="mask-2" sketch:name="Clip 8" fill="white">
                    <use xlink:href="#path-1"></use>
                </mask>
                <g id="Clip-8"></g>
                <path d="M12.4233796,22.7640449 L14.5142204,22.7640449 L14.5142204,33.1955056 L12.4233796,33.1955056 L12.4233796,22.7640449 Z M15.6497633,22.7640449 L19.8674939,22.7640449 L19.8674939,24.7191011 L15.6497633,24.7191011 L15.6497633,22.7640449 Z M15.6497633,27.3438202 L18.8220735,27.3438202 L18.8220735,29.2988764 L15.6497633,29.2988764 L15.6497633,27.3438202 Z" id="Fill-7" fill="#FEFEFE" sketch:type="MSShapeGroup" mask="url(#mask-2)"></path>
                <path d="M26.0363755,22.7640449 L28.1227102,22.7640449 L28.1227102,33.1955056 L26.0363755,33.1955056 L26.0363755,22.7640449 Z" id="Fill-9" fill="#FEFEFE" sketch:type="MSShapeGroup" mask="url(#mask-2)"></path>
                <path d="M34.3636898,31.4561798 L35.8236735,30.0179775 C36.5266286,30.6831461 37.2476082,31.1685393 38.2209306,31.294382 L38.2209306,33.3213483 C36.6528,33.1955056 35.4812082,32.5123596 34.3636898,31.4561798 L34.3636898,31.4561798 Z M39.3564735,33.3033708 L39.3564735,31.3303371 C40.1675755,31.258427 40.8885551,30.952809 40.8885551,30.0179775 C40.8885551,29.4067416 40.149551,29.1191011 39.6628898,29.0651685 C39.6628898,29.0651685 38.0587102,28.9393258 37.8063673,28.8674157 C36.1300898,28.6696629 34.7962776,27.6494382 34.7962776,25.8696629 C34.7962776,23.9325843 36.4365061,22.8359551 38.2209306,22.6921348 L38.2209306,24.6831461 C37.4819265,24.7550562 36.9051429,25.0966292 36.9051429,25.905618 C36.9051429,26.5707865 37.7522939,26.7865169 38.2750041,26.8404494 L40.0053551,27.0561798 C41.7717551,27.2719101 43.0875429,28.1348315 43.0875429,30.0539326 C43.0875429,32.1393258 41.2129959,33.1235955 39.3564735,33.3033708 L39.3564735,33.3033708 Z M41.5013878,25.6 C40.8525061,25.1505618 40.1315265,24.8269663 39.3564735,24.7011236 L39.3564735,22.6921348 C40.6362122,22.8 41.8078041,23.2494382 42.799151,24.0764045 L41.5013878,25.6 Z" id="Fill-10" fill="#FEFEFE" sketch:type="MSShapeGroup" mask="url(#mask-2)"></path>
                <path d="M49.1077224,22.7640449 L51.2030694,22.7640449 L51.2030694,33.1955056 L49.1077224,33.1955056 L49.1077224,22.7640449 Z M55.3261714,33.1955056 L55.3261714,28.8674157 L52.3341061,28.8674157 L52.3341061,26.9483146 L55.3261714,26.9483146 L55.3261714,22.7640449 L57.4170122,22.7640449 L57.4170122,33.1955056 L55.3261714,33.1955056 Z" id="Fill-11" fill="#FEFEFE" sketch:type="MSShapeGroup" mask="url(#mask-2)"></path>
                <path id="Fill-12" fill="#FAFCF8" sketch:type="MSShapeGroup" mask="url(#mask-2)" d="M0,0 L0.450612245,0 L0.450612245,40 L0,40 L0,0 Z"></path>
            </g>
        </g>
    </g>
</svg>