<?xml version="1.0" encoding="UTF-8" standalone="no"?>
<svg
   xmlns:dc="http://purl.org/dc/elements/1.1/"
   xmlns:cc="http://creativecommons.org/ns#"
   xmlns:rdf="http://www.w3.org/1999/02/22-rdf-syntax-ns#"
   xmlns:svg="http://www.w3.org/2000/svg"
   xmlns="http://www.w3.org/2000/svg"
   xmlns:sodipodi="http://sodipodi.sourceforge.net/DTD/sodipodi-0.dtd"
   xmlns:inkscape="http://www.inkscape.org/namespaces/inkscape"
   width="48px"
   height="29px"
   viewBox="0 0 48 29"
   version="1.1"
   id="svg4293"
   inkscape:version="0.91 r13725"
   sodipodi:docname="Icon_trimming_blue.svg">
  <metadata
     id="metadata4307">
    <rdf:RDF>
      <cc:Work
         rdf:about="">
        <dc:format>image/svg+xml</dc:format>
        <dc:type
           rdf:resource="http://purl.org/dc/dcmitype/StillImage" />
        <dc:title>Icon_trimming</dc:title>
      </cc:Work>
    </rdf:RDF>
  </metadata>
  <sodipodi:namedview
     pagecolor="#ffffff"
     bordercolor="#666666"
     borderopacity="1"
     objecttolerance="10"
     gridtolerance="10"
     guidetolerance="10"
     inkscape:pageopacity="0"
     inkscape:pageshadow="2"
     inkscape:window-width="925"
     inkscape:window-height="480"
     id="namedview4305"
     showgrid="false"
     inkscape:zoom="6.1875"
     inkscape:cx="26.355079"
     inkscape:cy="14.5"
     inkscape:window-x="65"
     inkscape:window-y="24"
     inkscape:window-maximized="0"
     inkscape:current-layer="svg4293" />
  <!-- Generator: Sketch 3.6.1 (26313) - http://www.bohemiancoding.com/sketch -->
  <title
     id="title4295">Icon_trimming</title>
  <desc
     id="desc4297">Created with Sketch.</desc>
  <defs
     id="defs4299" />
  <g
     id="Receiving"
     stroke="none"
     stroke-width="1"
     fill="none"
     fill-rule="evenodd">
    <g
       id="Sony-X-Z3-Tab-Comp-Vertical-(2x)-Copy-3"
       transform="translate(-65,-272)"
       style="fill:#74a2b0">
      <g
         id="Station-/-nav">
        <path
           d="m 110.28767,296.73473 c -0.17891,0.27054 -1.29818,1.12581 -3.13854,1.33418 -0.82364,0.0927 -1.63855,0.0338 -2.42509,-0.17455 -5.300731,-1.41054 -17.420731,-6.99381 -22.371276,-9.32072 l 3.281454,-5.45455 c 5.364,2.96291 20.575642,11.35964 23.129452,12.66545 0.852,0.43528 1.30582,0.732 1.54473,0.91637 -0.007,0.0109 -0.0142,0.0218 -0.0207,0.0338 m -0.53018,-2.89309 c -3.048,-1.55782 -24.908726,-13.65055 -24.908726,-13.65055 l -5.606182,9.32182 c 0,0 17.929091,8.62909 24.920728,10.49018 1.12145,0.29782 2.22109,0.348 3.23127,0.23345 2.316,-0.26181 4.16837,-1.38763 4.76073,-2.37381 0.95018,-1.58182 0.61636,-2.48073 -2.39782,-4.02109 z M 83.400909,279.34793 c 0,0 -9.928364,-5.7 -11.984727,-6.82691 -2.056364,-1.128 -4.663637,-0.35673 -5.857091,1.66145 -1.194545,2.01818 -0.342546,4.71491 1.312363,5.61491 1.656001,0.89891 3.757092,-0.072 4.806546,0.26073 1.049454,0.33273 1.312364,2.03018 2.849455,2.90509 1.469454,0.83782 5.299636,2.268 5.299636,2.268 l 3.573818,-5.88327 z m -4.863273,2.42073 c -0.517091,0.14181 -1.051636,-0.16255 -1.193454,-0.67964 -0.141818,-0.51818 0.162545,-1.05164 0.679636,-1.19346 0.518182,-0.14182 1.051637,0.16255 1.193455,0.67964 0.141818,0.51709 -0.162546,1.05164 -0.679637,1.19346 z m -4.197818,-3.06764 c -0.517091,0.14182 -1.051636,-0.16255 -1.193454,-0.67964 -0.141818,-0.51818 0.162545,-1.05164 0.679636,-1.19345 0.518182,-0.14182 1.051636,0.16254 1.193454,0.67963 0.141819,0.51709 -0.162545,1.05164 -0.679636,1.19346 z m -4.934182,-1.66582 c -0.63709,0.17454 -1.296,-0.19964 -1.470545,-0.83673 -0.173455,-0.63709 0.200727,-1.29491 0.837818,-1.47054 0.637091,-0.17346 1.294909,0.20072 1.469455,0.83781 0.174545,0.6371 -0.200728,1.29491 -0.836728,1.46946 z"
           id="Icon_trimming"
           inkscape:connector-curvature="0" />
      </g>
    </g>
  </g>
</svg>
