<?xml version="1.0" encoding="UTF-8" standalone="no"?>
<svg width="30px" height="26px" viewBox="0 0 30 26" version="1.1" xmlns="http://www.w3.org/2000/svg" xmlns:xlink="http://www.w3.org/1999/xlink" xmlns:sketch="http://www.bohemiancoding.com/sketch/ns">
    <!-- Generator: Sketch 3.5.2 (25235) - http://www.bohemiancoding.com/sketch -->
    <title>weight_unlocked_icon</title>
    <desc>Created with Sketch.</desc>
    <defs>
        <filter x="-50%" y="-50%" width="200%" height="200%" filterUnits="objectBoundingBox" id="filter-1">
            <feOffset dx="1" dy="2" in="SourceAlpha" result="shadowOffsetOuter1"></feOffset>
            <feGaussianBlur stdDeviation="1" in="shadowOffsetOuter1" result="shadowBlurOuter1"></feGaussianBlur>
            <feColorMatrix values="0 0 0 0 0   0 0 0 0 0   0 0 0 0 0  0 0 0 0.14 0" in="shadowBlurOuter1" type="matrix" result="shadowMatrixOuter1"></feColorMatrix>
            <feMerge>
                <feMergeNode in="shadowMatrixOuter1"></feMergeNode>
                <feMergeNode in="SourceGraphic"></feMergeNode>
            </feMerge>
        </filter>
    </defs>
    <g id="Page-1" stroke="none" stroke-width="1" fill="none" fill-rule="evenodd" sketch:type="MSPage">
        <path d="M11.0000001,16.7324355 L11.0000001,19 L9.0000001,19 L9.0000001,16.7324356 C8.40219872,16.3866262 8.00000009,15.7402823 8.00000009,15 C8.00000009,13.8954305 8.89543059,13 10.0000001,13 C11.1045696,13 12.0000001,13.8954305 12.0000001,15 C12.0000001,15.7402823 11.5978015,16.3866261 11.0000001,16.7324355 Z M27,11 C27,11.2708335 26.9010445,11.5052075 26.7031265,11.7031255 C26.5052085,11.9010435 26.2708345,11.999999 26.0000009,11.999999 L25.0000019,11.999999 C24.7291684,11.999999 24.4947944,11.9010435 24.2968763,11.7031255 C24.0989583,11.5052075 24.0000028,11.2708335 24.0000028,11 L24.0000028,7.00000032 C24.0000028,5.89582727 23.6093818,4.95312673 22.8281258,4.17187419 C22.0468732,3.39062165 21.1041727,3.00000064 19.9999996,3.00000064 C18.89583,3.00000064 17.9531295,3.39062165 17.1718769,4.17187419 C16.3906209,4.95312673 15.9999999,5.89582727 15.9999999,7.00000032 L15.9999999,10.000001 L17.500002,10.000001 C17.91667,10.000001 18.2708315,10.145832 18.5625005,10.437501 C18.8541695,10.7291665 19.0000005,11.0833315 19.0000005,11.4999995 L19.0000005,20.5 C19.0000005,20.9166688 18.8541695,21.270832 18.5625005,21.5625 C18.2708315,21.8541681 17.91667,22 17.500002,22 L2.49999999,22 C2.08333126,22 1.72916799,21.8541681 1.43750003,21.5625 C1.14583188,21.270832 1,20.9166688 1,20.5 L1,11.4999995 C1,11.0833315 1.14583188,10.7291665 1.43750003,10.437501 C1.72916799,10.145832 2.08333126,10.000001 2.49999999,10.000001 L12.9999992,10.000001 L12.9999992,7.00000032 C12.9999992,5.07290723 13.6848897,3.42448416 15.0546883,2.05468559 C16.4244869,0.684887031 18.0729065,0 19.9999996,0 C21.9270927,0 23.5755158,0.684887031 24.9453144,2.05468559 C26.315113,3.42448416 27,5.07290723 27,7.00000032 L27,11 Z" id="weight_unlocked_icon" fill="#FFFFFF" filter="url(#filter-1)" sketch:type="MSShapeGroup"></path>
    </g>
</svg>