<?xml version="1.0" encoding="UTF-8" standalone="no"?>
<svg width="18px" height="22px" viewBox="0 0 18 22" version="1.1" xmlns="http://www.w3.org/2000/svg" xmlns:xlink="http://www.w3.org/1999/xlink">
    <!-- Generator: Sketch 3.6.1 (26313) - http://www.bohemiancoding.com/sketch -->
    <title>weight_lock_icon</title>
    <desc>Created with Sketch.</desc>
    <defs></defs>
    <g id="Page-1" stroke="none" stroke-width="1" fill="none" fill-rule="evenodd">
        <g id="weight_lock_icon" fill="#0076AD">
            <g id="Page-1">
                <path d="M4.99999873,10.000001 L13.0000016,10.000001 L13.0000016,7.00000032 C13.0000016,5.89582727 12.6093806,4.95312673 11.8281245,4.17187419 C11.046872,3.39062165 10.1041715,3.00000064 9.0000019,3.00000064 C7.89582886,3.00000064 6.95312832,3.39062165 6.17187578,4.17187419 C5.39061975,4.95312673 4.99999873,5.89582727 4.99999873,7.00000032 L4.99999873,10.000001 L4.99999873,10.000001 Z M10.0000001,16.7324355 L10.0000001,19 L8.0000001,19 L8.0000001,16.7324356 C7.40219872,16.3866262 7.00000009,15.7402823 7.00000009,15 C7.00000009,13.8954305 7.89543059,13 9.0000001,13 C10.1045696,13 11.0000001,13.8954305 11.0000001,15 C11.0000001,15.7402823 10.5978015,16.3866261 10.0000001,16.7324355 L10.0000001,16.7324355 Z M18.0000003,11.4999995 L18.0000003,20.5 C18.0000003,20.9166688 17.8541693,21.270832 17.5625003,21.5625 C17.2708313,21.8541681 16.9166698,22 16.5000018,22 L1.49999997,22 C1.08333125,22 0.72916798,21.8541681 0.43750002,21.5625 C0.14583188,21.270832 0,20.9166688 0,20.5 L0,11.4999995 C0,11.0833315 0.14583188,10.7291665 0.43750002,10.437501 C0.72916798,10.145832 1.08333125,10.000001 1.49999997,10.000001 L2.00000019,10.000001 L2.00000019,7.00000032 C2.00000019,5.08332323 2.68749332,3.43750766 4.06249918,2.06249759 C5.43750575,0.687491031 7.08332482,0 9.0000019,0 C10.9166755,0 12.5624946,0.687491031 13.9375011,2.06249759 C15.3125077,3.43750766 16.0000022,5.08332323 16.0000022,7.00000032 L16.0000022,10.000001 L16.5000018,10.000001 C16.9166698,10.000001 17.2708313,10.145832 17.5625003,10.437501 C17.8541693,10.7291665 18.0000003,11.0833315 18.0000003,11.4999995 L18.0000003,11.4999995 Z" id="weight_lock_icon"></path>
            </g>
        </g>
    </g>
</svg>